<svg xmlns="http://www.w3.org/2000/svg" width="800" height="280" viewBox="0 0 800 280" fill="none">
  <title>@IAmMasterCraft's Code DNA</title>
  <defs>
    <style>
      @import url('https://fonts.googleapis.com/css2?family=SF+Pro+Display:wght@300;400;500;600;700&amp;display=swap');
      * { font-family: -apple-system, BlinkMacSystemFont, 'SF Pro Display', 'SF Pro Text', 'Helvetica Neue', Helvetica, Arial, sans-serif; }
      .title { font-size: 18px; font-weight: 600; fill: #1D1D1F; letter-spacing: -0.3px; }
      .subtitle { font-size: 13px; font-weight: 400; fill: #86868B; letter-spacing: -0.1px; }
      .label { font-size: 11px; font-weight: 500; fill: #86868B; letter-spacing: 0.3px; text-transform: uppercase; }
      .value { font-size: 14px; font-weight: 600; fill: #1D1D1F; }
      .small { font-size: 11px; font-weight: 400; fill: #AEAEB2; }
    </style>
    <filter id="shadow" x="-4%" y="-4%" width="108%" height="108%">
      <feDropShadow dx="0" dy="1" stdDeviation="3" flood-color="#000000" flood-opacity="0.04"/>
      <feDropShadow dx="0" dy="2" stdDeviation="8" flood-color="#000000" flood-opacity="0.03"/>
    </filter>
    <filter id="softShadow" x="-2%" y="-2%" width="104%" height="104%">
      <feDropShadow dx="0" dy="1" stdDeviation="2" flood-color="#000000" flood-opacity="0.06"/>
    </filter>
    <linearGradient id="cardBg" x1="0" y1="0" x2="0" y2="1">
      <stop offset="0%" stop-color="#FFFFFF"/>
      <stop offset="100%" stop-color="#FAFAFA"/>
    </linearGradient>
  </defs>
  <rect width="800" height="280" rx="16" fill="url(#cardBg)" stroke="#E8E8ED" stroke-width="1"/>
  <text x="32" y="38" class="title">Code DNA</text>
  <text x="32" y="58" class="subtitle">Your unique developer fingerprint</text>
  <line x1="32.0" y1="193.2" x2="32.0" y2="116.8" stroke="#1572B6" stroke-width="1.5" opacity="0.25"/>
  <line x1="68.8" y1="172.3" x2="68.8" y2="137.7" stroke="#4FC08D" stroke-width="1.5" opacity="0.19"/>
  <line x1="105.6" y1="140.4" x2="105.6" y2="169.6" stroke="#777BB4" stroke-width="1.5" opacity="0.19"/>
  <line x1="142.4" y1="117.8" x2="142.4" y2="192.2" stroke="#F7DF1E" stroke-width="1.5" opacity="0.24"/>
  <line x1="179.2" y1="118.8" x2="179.2" y2="191.2" stroke="#ED8B00" stroke-width="1.5" opacity="0.24"/>
  <line x1="216.0" y1="142.8" x2="216.0" y2="167.2" stroke="#C6538C" stroke-width="1.5" opacity="0.18"/>
  <line x1="252.8" y1="174.5" x2="252.8" y2="135.5" stroke="#E34F26" stroke-width="1.5" opacity="0.20"/>
  <line x1="289.6" y1="193.8" x2="289.6" y2="116.2" stroke="#0175C2" stroke-width="1.5" opacity="0.25"/>
  <line x1="326.4" y1="188.5" x2="326.4" y2="121.5" stroke="#1572B6" stroke-width="1.5" opacity="0.23"/>
  <line x1="363.2" y1="161.9" x2="363.2" y2="148.1" stroke="#4FC08D" stroke-width="1.5" opacity="0.17"/>
  <line x1="400.0" y1="130.9" x2="400.0" y2="179.1" stroke="#777BB4" stroke-width="1.5" opacity="0.21"/>
  <line x1="436.8" y1="115.2" x2="436.8" y2="194.8" stroke="#F7DF1E" stroke-width="1.5" opacity="0.25"/>
  <line x1="473.6" y1="124.8" x2="473.6" y2="185.2" stroke="#ED8B00" stroke-width="1.5" opacity="0.23"/>
  <line x1="510.4" y1="153.5" x2="510.4" y2="156.5" stroke="#C6538C" stroke-width="1.5" opacity="0.15"/>
  <line x1="547.2" y1="183.2" x2="547.2" y2="126.8" stroke="#E34F26" stroke-width="1.5" opacity="0.22"/>
  <line x1="584.0" y1="195.0" x2="584.0" y2="115.0" stroke="#0175C2" stroke-width="1.5" opacity="0.25"/>
  <line x1="620.8" y1="181.4" x2="620.8" y2="128.6" stroke="#1572B6" stroke-width="1.5" opacity="0.22"/>
  <line x1="657.6" y1="151.0" x2="657.6" y2="159.0" stroke="#4FC08D" stroke-width="1.5" opacity="0.16"/>
  <line x1="694.4" y1="123.2" x2="694.4" y2="186.8" stroke="#777BB4" stroke-width="1.5" opacity="0.23"/>
  <line x1="731.2" y1="115.6" x2="731.2" y2="194.4" stroke="#F7DF1E" stroke-width="1.5" opacity="0.25"/>
  <defs>
    <linearGradient id="strand1" x1="0" y1="0" x2="1" y2="0">
      <stop offset="0%" stop-color="#007AFF"/>
      <stop offset="50%" stop-color="#AF52DE"/>
      <stop offset="100%" stop-color="#5AC8FA"/>
    </linearGradient>
    <linearGradient id="strand2" x1="0" y1="0" x2="1" y2="0">
      <stop offset="0%" stop-color="#5856D6"/>
      <stop offset="50%" stop-color="#FF2D55"/>
      <stop offset="100%" stop-color="#FF9500"/>
    </linearGradient>
  </defs>
  <path d="M 32.0 193.2 L 44.3 188.5 L 56.5 181.4 L 68.8 172.3 L 81.1 161.9 L 93.3 151.0 L 105.6 140.4 L 117.9 130.9 L 130.1 123.2 L 142.4 117.8 L 154.7 115.2 L 166.9 115.6 L 179.2 118.8 L 191.5 124.8 L 203.7 133.0 L 216.0 142.8 L 228.3 153.5 L 240.5 164.4 L 252.8 174.5 L 265.1 183.2 L 277.3 189.8 L 289.6 193.8 L 301.9 195.0 L 314.1 193.2 L 326.4 188.5 L 338.7 181.4 L 350.9 172.3 L 363.2 161.9 L 375.5 151.0 L 387.7 140.4 L 400.0 130.9 L 412.3 123.2 L 424.5 117.8 L 436.8 115.2 L 449.1 115.6 L 461.3 118.8 L 473.6 124.8 L 485.9 133.0 L 498.1 142.8 L 510.4 153.5 L 522.7 164.4 L 534.9 174.5 L 547.2 183.2 L 559.5 189.8 L 571.7 193.8 L 584.0 195.0 L 596.3 193.2 L 608.5 188.5 L 620.8 181.4 L 633.1 172.3 L 645.3 161.9 L 657.6 151.0 L 669.9 140.4 L 682.1 130.9 L 694.4 123.2 L 706.7 117.8 L 718.9 115.2 L 731.2 115.6 L 743.5 118.8 L 755.7 124.8 L 768.0 133.0" stroke="url(#strand1)" stroke-width="2.5" fill="none" stroke-linecap="round" opacity="0.8"/>
  <path d="M 32.0 116.8 L 44.3 121.5 L 56.5 128.6 L 68.8 137.7 L 81.1 148.1 L 93.3 159.0 L 105.6 169.6 L 117.9 179.1 L 130.1 186.8 L 142.4 192.2 L 154.7 194.8 L 166.9 194.4 L 179.2 191.2 L 191.5 185.2 L 203.7 177.0 L 216.0 167.2 L 228.3 156.5 L 240.5 145.6 L 252.8 135.5 L 265.1 126.8 L 277.3 120.2 L 289.6 116.2 L 301.9 115.0 L 314.1 116.8 L 326.4 121.5 L 338.7 128.6 L 350.9 137.7 L 363.2 148.1 L 375.5 159.0 L 387.7 169.6 L 400.0 179.1 L 412.3 186.8 L 424.5 192.2 L 436.8 194.8 L 449.1 194.4 L 461.3 191.2 L 473.6 185.2 L 485.9 177.0 L 498.1 167.2 L 510.4 156.5 L 522.7 145.6 L 534.9 135.5 L 547.2 126.8 L 559.5 120.2 L 571.7 116.2 L 584.0 115.0 L 596.3 116.8 L 608.5 121.5 L 620.8 128.6 L 633.1 137.7 L 645.3 148.1 L 657.6 159.0 L 669.9 169.6 L 682.1 179.1 L 694.4 186.8 L 706.7 192.2 L 718.9 194.8 L 731.2 194.4 L 743.5 191.2 L 755.7 185.2 L 768.0 177.0" stroke="url(#strand2)" stroke-width="2.5" fill="none" stroke-linecap="round" opacity="0.8"/>
  <circle cx="32.0" cy="193.2" r="3.5" fill="#1572B6" opacity="0.9"/>
  <circle cx="32.0" cy="116.8" r="2.5" fill="#1572B6" opacity="0.5"/>
  <circle cx="68.8" cy="172.3" r="3.5" fill="#F7DF1E" opacity="0.9"/>
  <circle cx="68.8" cy="137.7" r="2.5" fill="#F7DF1E" opacity="0.5"/>
  <circle cx="105.6" cy="140.4" r="2.5" fill="#E34F26" opacity="0.5"/>
  <circle cx="105.6" cy="169.6" r="3.5" fill="#E34F26" opacity="0.9"/>
  <circle cx="142.4" cy="117.8" r="2.5" fill="#4FC08D" opacity="0.5"/>
  <circle cx="142.4" cy="192.2" r="3.5" fill="#4FC08D" opacity="0.9"/>
  <circle cx="179.2" cy="118.8" r="2.5" fill="#ED8B00" opacity="0.5"/>
  <circle cx="179.2" cy="191.2" r="3.5" fill="#ED8B00" opacity="0.9"/>
  <circle cx="216.0" cy="142.8" r="2.5" fill="#0175C2" opacity="0.5"/>
  <circle cx="216.0" cy="167.2" r="3.5" fill="#0175C2" opacity="0.9"/>
  <circle cx="252.8" cy="174.5" r="3.5" fill="#777BB4" opacity="0.9"/>
  <circle cx="252.8" cy="135.5" r="2.5" fill="#777BB4" opacity="0.5"/>
  <circle cx="289.6" cy="193.8" r="3.5" fill="#C6538C" opacity="0.9"/>
  <circle cx="289.6" cy="116.2" r="2.5" fill="#C6538C" opacity="0.5"/>
  <circle cx="326.4" cy="188.5" r="3.5" fill="#1572B6" opacity="0.9"/>
  <circle cx="326.4" cy="121.5" r="2.5" fill="#1572B6" opacity="0.5"/>
  <circle cx="363.2" cy="161.9" r="3.5" fill="#F7DF1E" opacity="0.9"/>
  <circle cx="363.2" cy="148.1" r="2.5" fill="#F7DF1E" opacity="0.5"/>
  <circle cx="400.0" cy="130.9" r="2.5" fill="#E34F26" opacity="0.5"/>
  <circle cx="400.0" cy="179.1" r="3.5" fill="#E34F26" opacity="0.9"/>
  <circle cx="436.8" cy="115.2" r="2.5" fill="#4FC08D" opacity="0.5"/>
  <circle cx="436.8" cy="194.8" r="3.5" fill="#4FC08D" opacity="0.9"/>
  <circle cx="473.6" cy="124.8" r="2.5" fill="#ED8B00" opacity="0.5"/>
  <circle cx="473.6" cy="185.2" r="3.5" fill="#ED8B00" opacity="0.9"/>
  <circle cx="510.4" cy="153.5" r="2.5" fill="#0175C2" opacity="0.5"/>
  <circle cx="510.4" cy="156.5" r="3.5" fill="#0175C2" opacity="0.9"/>
  <circle cx="547.2" cy="183.2" r="3.5" fill="#777BB4" opacity="0.9"/>
  <circle cx="547.2" cy="126.8" r="2.5" fill="#777BB4" opacity="0.5"/>
  <circle cx="584.0" cy="195.0" r="3.5" fill="#C6538C" opacity="0.9"/>
  <circle cx="584.0" cy="115.0" r="2.5" fill="#C6538C" opacity="0.5"/>
  <circle cx="620.8" cy="181.4" r="3.5" fill="#1572B6" opacity="0.9"/>
  <circle cx="620.8" cy="128.6" r="2.5" fill="#1572B6" opacity="0.5"/>
  <circle cx="657.6" cy="151.0" r="2.5" fill="#F7DF1E" opacity="0.5"/>
  <circle cx="657.6" cy="159.0" r="3.5" fill="#F7DF1E" opacity="0.9"/>
  <circle cx="694.4" cy="123.2" r="2.5" fill="#E34F26" opacity="0.5"/>
  <circle cx="694.4" cy="186.8" r="3.5" fill="#E34F26" opacity="0.9"/>
  <circle cx="731.2" cy="115.6" r="2.5" fill="#4FC08D" opacity="0.5"/>
  <circle cx="731.2" cy="194.4" r="3.5" fill="#4FC08D" opacity="0.9"/>
  <circle cx="768.0" cy="133.0" r="2.5" fill="#ED8B00" opacity="0.5"/>
  <circle cx="768.0" cy="177.0" r="3.5" fill="#ED8B00" opacity="0.9"/>
  <circle cx="32" cy="235" r="4" fill="#1572B6"/>
  <text x="42" y="239" class="small" fill="#86868B">CSS</text>
  <text x="60.6" y="239" class="small" fill="#AEAEB2"> 26.1%</text>
  <circle cx="157" cy="235" r="4" fill="#F7DF1E"/>
  <text x="167" y="239" class="small" fill="#86868B">JavaScript</text>
  <text x="229.0" y="239" class="small" fill="#AEAEB2"> 20.9%</text>
  <circle cx="282" cy="235" r="4" fill="#E34F26"/>
  <text x="292" y="239" class="small" fill="#86868B">HTML</text>
  <text x="316.8" y="239" class="small" fill="#AEAEB2"> 18.1%</text>
  <circle cx="407" cy="235" r="4" fill="#4FC08D"/>
  <text x="417" y="239" class="small" fill="#86868B">Vue</text>
  <text x="435.6" y="239" class="small" fill="#AEAEB2"> 13.6%</text>
  <circle cx="532" cy="235" r="4" fill="#ED8B00"/>
  <text x="542" y="239" class="small" fill="#86868B">Java</text>
  <text x="566.8" y="239" class="small" fill="#AEAEB2"> 8.9%</text>
  <circle cx="657" cy="235" r="4" fill="#0175C2"/>
  <text x="667" y="239" class="small" fill="#86868B">Dart</text>
  <text x="691.8" y="239" class="small" fill="#AEAEB2"> 6.5%</text>
  <text x="768" y="253" class="small" text-anchor="end" fill="#AEAEB2">DNA #4C6DD72F</text>
</svg>
