<svg xmlns="http://www.w3.org/2000/svg" width="800" height="280" viewBox="0 0 800 280" fill="none">
  <title>@IAmMasterCraft's Code DNA</title>
  <defs>
    <style>
      @import url('https://fonts.googleapis.com/css2?family=SF+Pro+Display:wght@300;400;500;600;700&amp;display=swap');
      * { font-family: -apple-system, BlinkMacSystemFont, 'SF Pro Display', 'SF Pro Text', 'Helvetica Neue', Helvetica, Arial, sans-serif; }
      .title { font-size: 18px; font-weight: 600; fill: #1D1D1F; letter-spacing: -0.3px; }
      .subtitle { font-size: 13px; font-weight: 400; fill: #86868B; letter-spacing: -0.1px; }
      .label { font-size: 11px; font-weight: 500; fill: #86868B; letter-spacing: 0.3px; text-transform: uppercase; }
      .value { font-size: 14px; font-weight: 600; fill: #1D1D1F; }
      .small { font-size: 11px; font-weight: 400; fill: #AEAEB2; }
    </style>
    <filter id="shadow" x="-4%" y="-4%" width="108%" height="108%">
      <feDropShadow dx="0" dy="1" stdDeviation="3" flood-color="#000000" flood-opacity="0.04"/>
      <feDropShadow dx="0" dy="2" stdDeviation="8" flood-color="#000000" flood-opacity="0.03"/>
    </filter>
    <filter id="softShadow" x="-2%" y="-2%" width="104%" height="104%">
      <feDropShadow dx="0" dy="1" stdDeviation="2" flood-color="#000000" flood-opacity="0.06"/>
    </filter>
    <linearGradient id="cardBg" x1="0" y1="0" x2="0" y2="1">
      <stop offset="0%" stop-color="#FFFFFF"/>
      <stop offset="100%" stop-color="#FAFAFA"/>
    </linearGradient>
  </defs>
  <rect width="800" height="280" rx="16" fill="url(#cardBg)" stroke="#E8E8ED" stroke-width="1"/>
  <text x="32" y="38" class="title">Code DNA</text>
  <text x="32" y="58" class="subtitle">Your unique developer fingerprint</text>
  <line x1="32.0" y1="125.1" x2="32.0" y2="184.9" stroke="#1572B6" stroke-width="1.5" opacity="0.22"/>
  <line x1="68.8" y1="152.1" x2="68.8" y2="157.9" stroke="#4FC08D" stroke-width="1.5" opacity="0.16"/>
  <line x1="105.6" y1="180.7" x2="105.6" y2="129.3" stroke="#777BB4" stroke-width="1.5" opacity="0.21"/>
  <line x1="142.4" y1="194.8" x2="142.4" y2="115.2" stroke="#F7DF1E" stroke-width="1.5" opacity="0.25"/>
  <line x1="179.2" y1="186.4" x2="179.2" y2="123.6" stroke="#ED8B00" stroke-width="1.5" opacity="0.23"/>
  <line x1="216.0" y1="160.2" x2="216.0" y2="149.8" stroke="#C6538C" stroke-width="1.5" opacity="0.16"/>
  <line x1="252.8" y1="131.1" x2="252.8" y2="178.9" stroke="#E34F26" stroke-width="1.5" opacity="0.21"/>
  <line x1="289.6" y1="115.5" x2="289.6" y2="194.5" stroke="#0175C2" stroke-width="1.5" opacity="0.25"/>
  <line x1="326.4" y1="122.3" x2="326.4" y2="187.7" stroke="#1572B6" stroke-width="1.5" opacity="0.23"/>
  <line x1="363.2" y1="147.5" x2="363.2" y2="162.5" stroke="#4FC08D" stroke-width="1.5" opacity="0.17"/>
  <line x1="400.0" y1="177.0" x2="400.0" y2="133.0" stroke="#777BB4" stroke-width="1.5" opacity="0.21"/>
  <line x1="436.8" y1="194.1" x2="436.8" y2="115.9" stroke="#F7DF1E" stroke-width="1.5" opacity="0.25"/>
  <line x1="473.6" y1="189.0" x2="473.6" y2="121.0" stroke="#ED8B00" stroke-width="1.5" opacity="0.23"/>
  <line x1="510.4" y1="164.7" x2="510.4" y2="145.3" stroke="#C6538C" stroke-width="1.5" opacity="0.17"/>
  <line x1="547.2" y1="134.9" x2="547.2" y2="175.1" stroke="#E34F26" stroke-width="1.5" opacity="0.20"/>
  <line x1="584.0" y1="116.5" x2="584.0" y2="193.5" stroke="#0175C2" stroke-width="1.5" opacity="0.25"/>
  <line x1="620.8" y1="119.8" x2="620.8" y2="190.2" stroke="#1572B6" stroke-width="1.5" opacity="0.24"/>
  <line x1="657.6" y1="143.1" x2="657.6" y2="166.9" stroke="#4FC08D" stroke-width="1.5" opacity="0.18"/>
  <line x1="694.4" y1="173.1" x2="694.4" y2="136.9" stroke="#777BB4" stroke-width="1.5" opacity="0.20"/>
  <line x1="731.2" y1="192.8" x2="731.2" y2="117.2" stroke="#F7DF1E" stroke-width="1.5" opacity="0.24"/>
  <defs>
    <linearGradient id="strand1" x1="0" y1="0" x2="1" y2="0">
      <stop offset="0%" stop-color="#007AFF"/>
      <stop offset="50%" stop-color="#AF52DE"/>
      <stop offset="100%" stop-color="#5AC8FA"/>
    </linearGradient>
    <linearGradient id="strand2" x1="0" y1="0" x2="1" y2="0">
      <stop offset="0%" stop-color="#5856D6"/>
      <stop offset="50%" stop-color="#FF2D55"/>
      <stop offset="100%" stop-color="#FF9500"/>
    </linearGradient>
  </defs>
  <path d="M 32.0 125.1 L 44.3 132.9 L 56.5 142.1 L 68.8 152.1 L 81.1 162.3 L 93.3 172.1 L 105.6 180.7 L 117.9 187.7 L 130.1 192.5 L 142.4 194.8 L 154.7 194.5 L 166.9 191.6 L 179.2 186.4 L 191.5 179.0 L 203.7 170.1 L 216.0 160.2 L 228.3 149.9 L 240.5 140.0 L 252.8 131.1 L 265.1 123.7 L 277.3 118.4 L 289.6 115.5 L 301.9 115.2 L 314.1 117.5 L 326.4 122.3 L 338.7 129.2 L 350.9 137.8 L 363.2 147.5 L 375.5 157.8 L 387.7 167.8 L 400.0 177.0 L 412.3 184.8 L 424.5 190.6 L 436.8 194.1 L 449.1 195.0 L 461.3 193.2 L 473.6 189.0 L 485.9 182.5 L 498.1 174.2 L 510.4 164.7 L 522.7 154.5 L 534.9 144.4 L 547.2 134.9 L 559.5 126.8 L 571.7 120.5 L 584.0 116.5 L 596.3 115.0 L 608.5 116.1 L 620.8 119.8 L 633.1 125.8 L 645.3 133.8 L 657.6 143.1 L 669.9 153.2 L 682.1 163.4 L 694.4 173.1 L 706.7 181.5 L 718.9 188.3 L 731.2 192.8 L 743.5 194.9 L 755.7 194.3 L 768.0 191.2" stroke="url(#strand1)" stroke-width="2.5" fill="none" stroke-linecap="round" opacity="0.8"/>
  <path d="M 32.0 184.9 L 44.3 177.1 L 56.5 167.9 L 68.8 157.9 L 81.1 147.7 L 93.3 137.9 L 105.6 129.3 L 117.9 122.3 L 130.1 117.5 L 142.4 115.2 L 154.7 115.5 L 166.9 118.4 L 179.2 123.6 L 191.5 131.0 L 203.7 139.9 L 216.0 149.8 L 228.3 160.1 L 240.5 170.0 L 252.8 178.9 L 265.1 186.3 L 277.3 191.6 L 289.6 194.5 L 301.9 194.8 L 314.1 192.5 L 326.4 187.7 L 338.7 180.8 L 350.9 172.2 L 363.2 162.5 L 375.5 152.2 L 387.7 142.2 L 400.0 133.0 L 412.3 125.2 L 424.5 119.4 L 436.8 115.9 L 449.1 115.0 L 461.3 116.8 L 473.6 121.0 L 485.9 127.5 L 498.1 135.8 L 510.4 145.3 L 522.7 155.5 L 534.9 165.6 L 547.2 175.1 L 559.5 183.2 L 571.7 189.5 L 584.0 193.5 L 596.3 195.0 L 608.5 193.9 L 620.8 190.2 L 633.1 184.2 L 645.3 176.2 L 657.6 166.9 L 669.9 156.8 L 682.1 146.6 L 694.4 136.9 L 706.7 128.5 L 718.9 121.7 L 731.2 117.2 L 743.5 115.1 L 755.7 115.7 L 768.0 118.8" stroke="url(#strand2)" stroke-width="2.5" fill="none" stroke-linecap="round" opacity="0.8"/>
  <circle cx="32.0" cy="125.1" r="2.5" fill="#1572B6" opacity="0.5"/>
  <circle cx="32.0" cy="184.9" r="3.5" fill="#1572B6" opacity="0.9"/>
  <circle cx="68.8" cy="152.1" r="2.5" fill="#F7DF1E" opacity="0.5"/>
  <circle cx="68.8" cy="157.9" r="3.5" fill="#F7DF1E" opacity="0.9"/>
  <circle cx="105.6" cy="180.7" r="3.5" fill="#E34F26" opacity="0.9"/>
  <circle cx="105.6" cy="129.3" r="2.5" fill="#E34F26" opacity="0.5"/>
  <circle cx="142.4" cy="194.8" r="3.5" fill="#4FC08D" opacity="0.9"/>
  <circle cx="142.4" cy="115.2" r="2.5" fill="#4FC08D" opacity="0.5"/>
  <circle cx="179.2" cy="186.4" r="3.5" fill="#ED8B00" opacity="0.9"/>
  <circle cx="179.2" cy="123.6" r="2.5" fill="#ED8B00" opacity="0.5"/>
  <circle cx="216.0" cy="160.2" r="3.5" fill="#0175C2" opacity="0.9"/>
  <circle cx="216.0" cy="149.8" r="2.5" fill="#0175C2" opacity="0.5"/>
  <circle cx="252.8" cy="131.1" r="2.5" fill="#777BB4" opacity="0.5"/>
  <circle cx="252.8" cy="178.9" r="3.5" fill="#777BB4" opacity="0.9"/>
  <circle cx="289.6" cy="115.5" r="2.5" fill="#C6538C" opacity="0.5"/>
  <circle cx="289.6" cy="194.5" r="3.5" fill="#C6538C" opacity="0.9"/>
  <circle cx="326.4" cy="122.3" r="2.5" fill="#1572B6" opacity="0.5"/>
  <circle cx="326.4" cy="187.7" r="3.5" fill="#1572B6" opacity="0.9"/>
  <circle cx="363.2" cy="147.5" r="2.5" fill="#F7DF1E" opacity="0.5"/>
  <circle cx="363.2" cy="162.5" r="3.5" fill="#F7DF1E" opacity="0.9"/>
  <circle cx="400.0" cy="177.0" r="3.5" fill="#E34F26" opacity="0.9"/>
  <circle cx="400.0" cy="133.0" r="2.5" fill="#E34F26" opacity="0.5"/>
  <circle cx="436.8" cy="194.1" r="3.5" fill="#4FC08D" opacity="0.9"/>
  <circle cx="436.8" cy="115.9" r="2.5" fill="#4FC08D" opacity="0.5"/>
  <circle cx="473.6" cy="189.0" r="3.5" fill="#ED8B00" opacity="0.9"/>
  <circle cx="473.6" cy="121.0" r="2.5" fill="#ED8B00" opacity="0.5"/>
  <circle cx="510.4" cy="164.7" r="3.5" fill="#0175C2" opacity="0.9"/>
  <circle cx="510.4" cy="145.3" r="2.5" fill="#0175C2" opacity="0.5"/>
  <circle cx="547.2" cy="134.9" r="2.5" fill="#777BB4" opacity="0.5"/>
  <circle cx="547.2" cy="175.1" r="3.5" fill="#777BB4" opacity="0.9"/>
  <circle cx="584.0" cy="116.5" r="2.5" fill="#C6538C" opacity="0.5"/>
  <circle cx="584.0" cy="193.5" r="3.5" fill="#C6538C" opacity="0.9"/>
  <circle cx="620.8" cy="119.8" r="2.5" fill="#1572B6" opacity="0.5"/>
  <circle cx="620.8" cy="190.2" r="3.5" fill="#1572B6" opacity="0.9"/>
  <circle cx="657.6" cy="143.1" r="2.5" fill="#F7DF1E" opacity="0.5"/>
  <circle cx="657.6" cy="166.9" r="3.5" fill="#F7DF1E" opacity="0.9"/>
  <circle cx="694.4" cy="173.1" r="3.5" fill="#E34F26" opacity="0.9"/>
  <circle cx="694.4" cy="136.9" r="2.5" fill="#E34F26" opacity="0.5"/>
  <circle cx="731.2" cy="192.8" r="3.5" fill="#4FC08D" opacity="0.9"/>
  <circle cx="731.2" cy="117.2" r="2.5" fill="#4FC08D" opacity="0.5"/>
  <circle cx="768.0" cy="191.2" r="3.5" fill="#ED8B00" opacity="0.9"/>
  <circle cx="768.0" cy="118.8" r="2.5" fill="#ED8B00" opacity="0.5"/>
  <circle cx="32" cy="235" r="4" fill="#1572B6"/>
  <text x="42" y="239" class="small" fill="#86868B">CSS</text>
  <text x="60.6" y="239" class="small" fill="#AEAEB2"> 26.2%</text>
  <circle cx="157" cy="235" r="4" fill="#F7DF1E"/>
  <text x="167" y="239" class="small" fill="#86868B">JavaScript</text>
  <text x="229.0" y="239" class="small" fill="#AEAEB2"> 20.5%</text>
  <circle cx="282" cy="235" r="4" fill="#E34F26"/>
  <text x="292" y="239" class="small" fill="#86868B">HTML</text>
  <text x="316.8" y="239" class="small" fill="#AEAEB2"> 18.1%</text>
  <circle cx="407" cy="235" r="4" fill="#4FC08D"/>
  <text x="417" y="239" class="small" fill="#86868B">Vue</text>
  <text x="435.6" y="239" class="small" fill="#AEAEB2"> 13.7%</text>
  <circle cx="532" cy="235" r="4" fill="#ED8B00"/>
  <text x="542" y="239" class="small" fill="#86868B">Java</text>
  <text x="566.8" y="239" class="small" fill="#AEAEB2"> 9.0%</text>
  <circle cx="657" cy="235" r="4" fill="#0175C2"/>
  <text x="667" y="239" class="small" fill="#86868B">Dart</text>
  <text x="691.8" y="239" class="small" fill="#AEAEB2"> 6.5%</text>
  <text x="768" y="253" class="small" text-anchor="end" fill="#AEAEB2">DNA #DDA4B639</text>
</svg>
