<svg xmlns="http://www.w3.org/2000/svg" width="800" height="280" viewBox="0 0 800 280" fill="none">
  <title>@IAmMasterCraft's Code DNA</title>
  <defs>
    <style>
      @import url('https://fonts.googleapis.com/css2?family=SF+Pro+Display:wght@300;400;500;600;700&amp;display=swap');
      * { font-family: -apple-system, BlinkMacSystemFont, 'SF Pro Display', 'SF Pro Text', 'Helvetica Neue', Helvetica, Arial, sans-serif; }
      .title { font-size: 18px; font-weight: 600; fill: #1D1D1F; letter-spacing: -0.3px; }
      .subtitle { font-size: 13px; font-weight: 400; fill: #86868B; letter-spacing: -0.1px; }
      .label { font-size: 11px; font-weight: 500; fill: #86868B; letter-spacing: 0.3px; text-transform: uppercase; }
      .value { font-size: 14px; font-weight: 600; fill: #1D1D1F; }
      .small { font-size: 11px; font-weight: 400; fill: #AEAEB2; }
    </style>
    <filter id="shadow" x="-4%" y="-4%" width="108%" height="108%">
      <feDropShadow dx="0" dy="1" stdDeviation="3" flood-color="#000000" flood-opacity="0.04"/>
      <feDropShadow dx="0" dy="2" stdDeviation="8" flood-color="#000000" flood-opacity="0.03"/>
    </filter>
    <filter id="softShadow" x="-2%" y="-2%" width="104%" height="104%">
      <feDropShadow dx="0" dy="1" stdDeviation="2" flood-color="#000000" flood-opacity="0.06"/>
    </filter>
    <linearGradient id="cardBg" x1="0" y1="0" x2="0" y2="1">
      <stop offset="0%" stop-color="#FFFFFF"/>
      <stop offset="100%" stop-color="#FAFAFA"/>
    </linearGradient>
  </defs>
  <rect width="800" height="280" rx="16" fill="url(#cardBg)" stroke="#E8E8ED" stroke-width="1"/>
  <text x="32" y="38" class="title">Code DNA</text>
  <text x="32" y="58" class="subtitle">Your unique developer fingerprint</text>
  <line x1="32.0" y1="191.0" x2="32.0" y2="119.0" stroke="#1572B6" stroke-width="1.5" opacity="0.24"/>
  <line x1="68.8" y1="177.5" x2="68.8" y2="132.5" stroke="#4FC08D" stroke-width="1.5" opacity="0.21"/>
  <line x1="105.6" y1="158.0" x2="105.6" y2="152.0" stroke="#777BB4" stroke-width="1.5" opacity="0.16"/>
  <line x1="142.4" y1="137.7" x2="142.4" y2="172.3" stroke="#F7DF1E" stroke-width="1.5" opacity="0.19"/>
  <line x1="179.2" y1="122.0" x2="179.2" y2="188.0" stroke="#ED8B00" stroke-width="1.5" opacity="0.23"/>
  <line x1="216.0" y1="115.1" x2="216.0" y2="194.9" stroke="#C6538C" stroke-width="1.5" opacity="0.25"/>
  <line x1="252.8" y1="118.8" x2="252.8" y2="191.2" stroke="#E34F26" stroke-width="1.5" opacity="0.24"/>
  <line x1="289.6" y1="132.2" x2="289.6" y2="177.8" stroke="#0175C2" stroke-width="1.5" opacity="0.21"/>
  <line x1="326.4" y1="151.6" x2="326.4" y2="158.4" stroke="#1572B6" stroke-width="1.5" opacity="0.16"/>
  <line x1="363.2" y1="171.9" x2="363.2" y2="138.1" stroke="#4FC08D" stroke-width="1.5" opacity="0.19"/>
  <line x1="400.0" y1="187.7" x2="400.0" y2="122.3" stroke="#777BB4" stroke-width="1.5" opacity="0.23"/>
  <line x1="436.8" y1="194.8" x2="436.8" y2="115.2" stroke="#F7DF1E" stroke-width="1.5" opacity="0.25"/>
  <line x1="473.6" y1="191.3" x2="473.6" y2="118.7" stroke="#ED8B00" stroke-width="1.5" opacity="0.24"/>
  <line x1="510.4" y1="178.1" x2="510.4" y2="131.9" stroke="#C6538C" stroke-width="1.5" opacity="0.21"/>
  <line x1="547.2" y1="158.8" x2="547.2" y2="151.2" stroke="#E34F26" stroke-width="1.5" opacity="0.16"/>
  <line x1="584.0" y1="138.4" x2="584.0" y2="171.6" stroke="#0175C2" stroke-width="1.5" opacity="0.19"/>
  <line x1="620.8" y1="122.5" x2="620.8" y2="187.5" stroke="#1572B6" stroke-width="1.5" opacity="0.23"/>
  <line x1="657.6" y1="115.2" x2="657.6" y2="194.8" stroke="#4FC08D" stroke-width="1.5" opacity="0.25"/>
  <line x1="694.4" y1="118.5" x2="694.4" y2="191.5" stroke="#777BB4" stroke-width="1.5" opacity="0.24"/>
  <line x1="731.2" y1="131.5" x2="731.2" y2="178.5" stroke="#F7DF1E" stroke-width="1.5" opacity="0.21"/>
  <defs>
    <linearGradient id="strand1" x1="0" y1="0" x2="1" y2="0">
      <stop offset="0%" stop-color="#007AFF"/>
      <stop offset="50%" stop-color="#AF52DE"/>
      <stop offset="100%" stop-color="#5AC8FA"/>
    </linearGradient>
    <linearGradient id="strand2" x1="0" y1="0" x2="1" y2="0">
      <stop offset="0%" stop-color="#5856D6"/>
      <stop offset="50%" stop-color="#FF2D55"/>
      <stop offset="100%" stop-color="#FF9500"/>
    </linearGradient>
  </defs>
  <path d="M 32.0 191.0 L 44.3 187.4 L 56.5 182.9 L 68.8 177.5 L 81.1 171.4 L 93.3 164.8 L 105.6 158.0 L 117.9 151.0 L 130.1 144.2 L 142.4 137.7 L 154.7 131.7 L 166.9 126.4 L 179.2 122.0 L 191.5 118.6 L 203.7 116.3 L 216.0 115.1 L 228.3 115.2 L 240.5 116.4 L 252.8 118.8 L 265.1 122.4 L 277.3 126.9 L 289.6 132.2 L 301.9 138.2 L 314.1 144.8 L 326.4 151.6 L 338.7 158.6 L 350.9 165.4 L 363.2 171.9 L 375.5 177.9 L 387.7 183.3 L 400.0 187.7 L 412.3 191.2 L 424.5 193.6 L 436.8 194.8 L 449.1 194.9 L 461.3 193.7 L 473.6 191.3 L 485.9 187.9 L 498.1 183.4 L 510.4 178.1 L 522.7 172.1 L 534.9 165.6 L 547.2 158.8 L 559.5 151.9 L 571.7 145.0 L 584.0 138.4 L 596.3 132.4 L 608.5 127.0 L 620.8 122.5 L 633.1 119.0 L 645.3 116.5 L 657.6 115.2 L 669.9 115.1 L 682.1 116.2 L 694.4 118.5 L 706.7 121.9 L 718.9 126.3 L 731.2 131.5 L 743.5 137.5 L 755.7 144.0 L 768.0 150.8" stroke="url(#strand1)" stroke-width="2.5" fill="none" stroke-linecap="round" opacity="0.8"/>
  <path d="M 32.0 119.0 L 44.3 122.6 L 56.5 127.1 L 68.8 132.5 L 81.1 138.6 L 93.3 145.2 L 105.6 152.0 L 117.9 159.0 L 130.1 165.8 L 142.4 172.3 L 154.7 178.3 L 166.9 183.6 L 179.2 188.0 L 191.5 191.4 L 203.7 193.7 L 216.0 194.9 L 228.3 194.8 L 240.5 193.6 L 252.8 191.2 L 265.1 187.6 L 277.3 183.1 L 289.6 177.8 L 301.9 171.8 L 314.1 165.2 L 326.4 158.4 L 338.7 151.4 L 350.9 144.6 L 363.2 138.1 L 375.5 132.1 L 387.7 126.7 L 400.0 122.3 L 412.3 118.8 L 424.5 116.4 L 436.8 115.2 L 449.1 115.1 L 461.3 116.3 L 473.6 118.7 L 485.9 122.1 L 498.1 126.6 L 510.4 131.9 L 522.7 137.9 L 534.9 144.4 L 547.2 151.2 L 559.5 158.1 L 571.7 165.0 L 584.0 171.6 L 596.3 177.6 L 608.5 183.0 L 620.8 187.5 L 633.1 191.0 L 645.3 193.5 L 657.6 194.8 L 669.9 194.9 L 682.1 193.8 L 694.4 191.5 L 706.7 188.1 L 718.9 183.7 L 731.2 178.5 L 743.5 172.5 L 755.7 166.0 L 768.0 159.2" stroke="url(#strand2)" stroke-width="2.5" fill="none" stroke-linecap="round" opacity="0.8"/>
  <circle cx="32.0" cy="191.0" r="3.5" fill="#1572B6" opacity="0.9"/>
  <circle cx="32.0" cy="119.0" r="2.5" fill="#1572B6" opacity="0.5"/>
  <circle cx="68.8" cy="177.5" r="3.5" fill="#F7DF1E" opacity="0.9"/>
  <circle cx="68.8" cy="132.5" r="2.5" fill="#F7DF1E" opacity="0.5"/>
  <circle cx="105.6" cy="158.0" r="3.5" fill="#E34F26" opacity="0.9"/>
  <circle cx="105.6" cy="152.0" r="2.5" fill="#E34F26" opacity="0.5"/>
  <circle cx="142.4" cy="137.7" r="2.5" fill="#4FC08D" opacity="0.5"/>
  <circle cx="142.4" cy="172.3" r="3.5" fill="#4FC08D" opacity="0.9"/>
  <circle cx="179.2" cy="122.0" r="2.5" fill="#ED8B00" opacity="0.5"/>
  <circle cx="179.2" cy="188.0" r="3.5" fill="#ED8B00" opacity="0.9"/>
  <circle cx="216.0" cy="115.1" r="2.5" fill="#0175C2" opacity="0.5"/>
  <circle cx="216.0" cy="194.9" r="3.5" fill="#0175C2" opacity="0.9"/>
  <circle cx="252.8" cy="118.8" r="2.5" fill="#777BB4" opacity="0.5"/>
  <circle cx="252.8" cy="191.2" r="3.5" fill="#777BB4" opacity="0.9"/>
  <circle cx="289.6" cy="132.2" r="2.5" fill="#C6538C" opacity="0.5"/>
  <circle cx="289.6" cy="177.8" r="3.5" fill="#C6538C" opacity="0.9"/>
  <circle cx="326.4" cy="151.6" r="2.5" fill="#1572B6" opacity="0.5"/>
  <circle cx="326.4" cy="158.4" r="3.5" fill="#1572B6" opacity="0.9"/>
  <circle cx="363.2" cy="171.9" r="3.5" fill="#F7DF1E" opacity="0.9"/>
  <circle cx="363.2" cy="138.1" r="2.5" fill="#F7DF1E" opacity="0.5"/>
  <circle cx="400.0" cy="187.7" r="3.5" fill="#E34F26" opacity="0.9"/>
  <circle cx="400.0" cy="122.3" r="2.5" fill="#E34F26" opacity="0.5"/>
  <circle cx="436.8" cy="194.8" r="3.5" fill="#4FC08D" opacity="0.9"/>
  <circle cx="436.8" cy="115.2" r="2.5" fill="#4FC08D" opacity="0.5"/>
  <circle cx="473.6" cy="191.3" r="3.5" fill="#ED8B00" opacity="0.9"/>
  <circle cx="473.6" cy="118.7" r="2.5" fill="#ED8B00" opacity="0.5"/>
  <circle cx="510.4" cy="178.1" r="3.5" fill="#0175C2" opacity="0.9"/>
  <circle cx="510.4" cy="131.9" r="2.5" fill="#0175C2" opacity="0.5"/>
  <circle cx="547.2" cy="158.8" r="3.5" fill="#777BB4" opacity="0.9"/>
  <circle cx="547.2" cy="151.2" r="2.5" fill="#777BB4" opacity="0.5"/>
  <circle cx="584.0" cy="138.4" r="2.5" fill="#C6538C" opacity="0.5"/>
  <circle cx="584.0" cy="171.6" r="3.5" fill="#C6538C" opacity="0.9"/>
  <circle cx="620.8" cy="122.5" r="2.5" fill="#1572B6" opacity="0.5"/>
  <circle cx="620.8" cy="187.5" r="3.5" fill="#1572B6" opacity="0.9"/>
  <circle cx="657.6" cy="115.2" r="2.5" fill="#F7DF1E" opacity="0.5"/>
  <circle cx="657.6" cy="194.8" r="3.5" fill="#F7DF1E" opacity="0.9"/>
  <circle cx="694.4" cy="118.5" r="2.5" fill="#E34F26" opacity="0.5"/>
  <circle cx="694.4" cy="191.5" r="3.5" fill="#E34F26" opacity="0.9"/>
  <circle cx="731.2" cy="131.5" r="2.5" fill="#4FC08D" opacity="0.5"/>
  <circle cx="731.2" cy="178.5" r="3.5" fill="#4FC08D" opacity="0.9"/>
  <circle cx="768.0" cy="150.8" r="2.5" fill="#ED8B00" opacity="0.5"/>
  <circle cx="768.0" cy="159.2" r="3.5" fill="#ED8B00" opacity="0.9"/>
  <circle cx="32" cy="235" r="4" fill="#1572B6"/>
  <text x="42" y="239" class="small" fill="#86868B">CSS</text>
  <text x="60.6" y="239" class="small" fill="#AEAEB2"> 26.1%</text>
  <circle cx="157" cy="235" r="4" fill="#F7DF1E"/>
  <text x="167" y="239" class="small" fill="#86868B">JavaScript</text>
  <text x="229.0" y="239" class="small" fill="#AEAEB2"> 20.9%</text>
  <circle cx="282" cy="235" r="4" fill="#E34F26"/>
  <text x="292" y="239" class="small" fill="#86868B">HTML</text>
  <text x="316.8" y="239" class="small" fill="#AEAEB2"> 18.1%</text>
  <circle cx="407" cy="235" r="4" fill="#4FC08D"/>
  <text x="417" y="239" class="small" fill="#86868B">Vue</text>
  <text x="435.6" y="239" class="small" fill="#AEAEB2"> 13.6%</text>
  <circle cx="532" cy="235" r="4" fill="#ED8B00"/>
  <text x="542" y="239" class="small" fill="#86868B">Java</text>
  <text x="566.8" y="239" class="small" fill="#AEAEB2"> 8.9%</text>
  <circle cx="657" cy="235" r="4" fill="#0175C2"/>
  <text x="667" y="239" class="small" fill="#86868B">Dart</text>
  <text x="691.8" y="239" class="small" fill="#AEAEB2"> 6.5%</text>
  <text x="768" y="253" class="small" text-anchor="end" fill="#AEAEB2">DNA #52710D0C</text>
</svg>
