<svg xmlns="http://www.w3.org/2000/svg" width="800" height="280" viewBox="0 0 800 280" fill="none">
  <title>@IAmMasterCraft's Code DNA</title>
  <defs>
    <style>
      @import url('https://fonts.googleapis.com/css2?family=SF+Pro+Display:wght@300;400;500;600;700&amp;display=swap');
      * { font-family: -apple-system, BlinkMacSystemFont, 'SF Pro Display', 'SF Pro Text', 'Helvetica Neue', Helvetica, Arial, sans-serif; }
      .title { font-size: 18px; font-weight: 600; fill: #1D1D1F; letter-spacing: -0.3px; }
      .subtitle { font-size: 13px; font-weight: 400; fill: #86868B; letter-spacing: -0.1px; }
      .label { font-size: 11px; font-weight: 500; fill: #86868B; letter-spacing: 0.3px; text-transform: uppercase; }
      .value { font-size: 14px; font-weight: 600; fill: #1D1D1F; }
      .small { font-size: 11px; font-weight: 400; fill: #AEAEB2; }
    </style>
    <filter id="shadow" x="-4%" y="-4%" width="108%" height="108%">
      <feDropShadow dx="0" dy="1" stdDeviation="3" flood-color="#000000" flood-opacity="0.04"/>
      <feDropShadow dx="0" dy="2" stdDeviation="8" flood-color="#000000" flood-opacity="0.03"/>
    </filter>
    <filter id="softShadow" x="-2%" y="-2%" width="104%" height="104%">
      <feDropShadow dx="0" dy="1" stdDeviation="2" flood-color="#000000" flood-opacity="0.06"/>
    </filter>
    <linearGradient id="cardBg" x1="0" y1="0" x2="0" y2="1">
      <stop offset="0%" stop-color="#FFFFFF"/>
      <stop offset="100%" stop-color="#FAFAFA"/>
    </linearGradient>
  </defs>
  <rect width="800" height="280" rx="16" fill="url(#cardBg)" stroke="#E8E8ED" stroke-width="1"/>
  <text x="32" y="38" class="title">Code DNA</text>
  <text x="32" y="58" class="subtitle">Your unique developer fingerprint</text>
  <line x1="32.0" y1="122.7" x2="32.0" y2="187.3" stroke="#1572B6" stroke-width="1.5" opacity="0.23"/>
  <line x1="68.8" y1="115.7" x2="68.8" y2="194.3" stroke="#4FC08D" stroke-width="1.5" opacity="0.25"/>
  <line x1="105.6" y1="133.9" x2="105.6" y2="176.1" stroke="#777BB4" stroke-width="1.5" opacity="0.20"/>
  <line x1="142.4" y1="165.5" x2="142.4" y2="144.5" stroke="#F7DF1E" stroke-width="1.5" opacity="0.18"/>
  <line x1="179.2" y1="190.5" x2="179.2" y2="119.5" stroke="#ED8B00" stroke-width="1.5" opacity="0.24"/>
  <line x1="216.0" y1="192.7" x2="216.0" y2="117.3" stroke="#C6538C" stroke-width="1.5" opacity="0.24"/>
  <line x1="252.8" y1="170.8" x2="252.8" y2="139.2" stroke="#E34F26" stroke-width="1.5" opacity="0.19"/>
  <line x1="289.6" y1="138.8" x2="289.6" y2="171.2" stroke="#0175C2" stroke-width="1.5" opacity="0.19"/>
  <line x1="326.4" y1="117.2" x2="326.4" y2="192.8" stroke="#1572B6" stroke-width="1.5" opacity="0.24"/>
  <line x1="363.2" y1="119.8" x2="363.2" y2="190.2" stroke="#4FC08D" stroke-width="1.5" opacity="0.24"/>
  <line x1="400.0" y1="144.9" x2="400.0" y2="165.1" stroke="#777BB4" stroke-width="1.5" opacity="0.18"/>
  <line x1="436.8" y1="176.6" x2="436.8" y2="133.4" stroke="#F7DF1E" stroke-width="1.5" opacity="0.20"/>
  <line x1="473.6" y1="194.4" x2="473.6" y2="115.6" stroke="#ED8B00" stroke-width="1.5" opacity="0.25"/>
  <line x1="510.4" y1="187.0" x2="510.4" y2="123.0" stroke="#C6538C" stroke-width="1.5" opacity="0.23"/>
  <line x1="547.2" y1="159.1" x2="547.2" y2="150.9" stroke="#E34F26" stroke-width="1.5" opacity="0.16"/>
  <line x1="584.0" y1="128.6" x2="584.0" y2="181.4" stroke="#0175C2" stroke-width="1.5" opacity="0.22"/>
  <line x1="620.8" y1="115.0" x2="620.8" y2="195.0" stroke="#1572B6" stroke-width="1.5" opacity="0.25"/>
  <line x1="657.6" y1="127.0" x2="657.6" y2="183.0" stroke="#4FC08D" stroke-width="1.5" opacity="0.22"/>
  <line x1="694.4" y1="156.9" x2="694.4" y2="153.1" stroke="#777BB4" stroke-width="1.5" opacity="0.15"/>
  <line x1="731.2" y1="185.6" x2="731.2" y2="124.4" stroke="#F7DF1E" stroke-width="1.5" opacity="0.23"/>
  <defs>
    <linearGradient id="strand1" x1="0" y1="0" x2="1" y2="0">
      <stop offset="0%" stop-color="#007AFF"/>
      <stop offset="50%" stop-color="#AF52DE"/>
      <stop offset="100%" stop-color="#5AC8FA"/>
    </linearGradient>
    <linearGradient id="strand2" x1="0" y1="0" x2="1" y2="0">
      <stop offset="0%" stop-color="#5856D6"/>
      <stop offset="50%" stop-color="#FF2D55"/>
      <stop offset="100%" stop-color="#FF9500"/>
    </linearGradient>
  </defs>
  <path d="M 32.0 122.7 L 44.3 117.5 L 56.5 115.1 L 68.8 115.7 L 81.1 119.2 L 93.3 125.4 L 105.6 133.9 L 117.9 143.8 L 130.1 154.7 L 142.4 165.5 L 154.7 175.6 L 166.9 184.1 L 179.2 190.5 L 191.5 194.1 L 203.7 194.9 L 216.0 192.7 L 228.3 187.6 L 240.5 180.2 L 252.8 170.8 L 265.1 160.2 L 277.3 149.3 L 289.6 138.8 L 301.9 129.5 L 314.1 122.1 L 326.4 117.2 L 338.7 115.1 L 350.9 116.0 L 363.2 119.8 L 375.5 126.2 L 387.7 134.8 L 400.0 144.9 L 412.3 155.8 L 424.5 166.6 L 436.8 176.6 L 449.1 184.9 L 461.3 191.0 L 473.6 194.4 L 485.9 194.8 L 498.1 192.3 L 510.4 187.0 L 522.7 179.3 L 534.9 169.7 L 547.2 159.1 L 559.5 148.2 L 571.7 137.7 L 584.0 128.6 L 596.3 121.5 L 608.5 116.8 L 620.8 115.0 L 633.1 116.2 L 645.3 120.3 L 657.6 127.0 L 669.9 135.8 L 682.1 146.0 L 694.4 156.9 L 706.7 167.7 L 718.9 177.5 L 731.2 185.6 L 743.5 191.5 L 755.7 194.6 L 768.0 194.7" stroke="url(#strand1)" stroke-width="2.5" fill="none" stroke-linecap="round" opacity="0.8"/>
  <path d="M 32.0 187.3 L 44.3 192.5 L 56.5 194.9 L 68.8 194.3 L 81.1 190.8 L 93.3 184.6 L 105.6 176.1 L 117.9 166.2 L 130.1 155.3 L 142.4 144.5 L 154.7 134.4 L 166.9 125.9 L 179.2 119.5 L 191.5 115.9 L 203.7 115.1 L 216.0 117.3 L 228.3 122.4 L 240.5 129.8 L 252.8 139.2 L 265.1 149.8 L 277.3 160.7 L 289.6 171.2 L 301.9 180.5 L 314.1 187.9 L 326.4 192.8 L 338.7 194.9 L 350.9 194.0 L 363.2 190.2 L 375.5 183.8 L 387.7 175.2 L 400.0 165.1 L 412.3 154.2 L 424.5 143.4 L 436.8 133.4 L 449.1 125.1 L 461.3 119.0 L 473.6 115.6 L 485.9 115.2 L 498.1 117.7 L 510.4 123.0 L 522.7 130.7 L 534.9 140.3 L 547.2 150.9 L 559.5 161.8 L 571.7 172.3 L 584.0 181.4 L 596.3 188.5 L 608.5 193.2 L 620.8 195.0 L 633.1 193.8 L 645.3 189.7 L 657.6 183.0 L 669.9 174.2 L 682.1 164.0 L 694.4 153.1 L 706.7 142.3 L 718.9 132.5 L 731.2 124.4 L 743.5 118.5 L 755.7 115.4 L 768.0 115.3" stroke="url(#strand2)" stroke-width="2.5" fill="none" stroke-linecap="round" opacity="0.8"/>
  <circle cx="32.0" cy="122.7" r="2.5" fill="#1572B6" opacity="0.5"/>
  <circle cx="32.0" cy="187.3" r="3.5" fill="#1572B6" opacity="0.9"/>
  <circle cx="68.8" cy="115.7" r="2.5" fill="#F7DF1E" opacity="0.5"/>
  <circle cx="68.8" cy="194.3" r="3.5" fill="#F7DF1E" opacity="0.9"/>
  <circle cx="105.6" cy="133.9" r="2.5" fill="#E34F26" opacity="0.5"/>
  <circle cx="105.6" cy="176.1" r="3.5" fill="#E34F26" opacity="0.9"/>
  <circle cx="142.4" cy="165.5" r="3.5" fill="#4FC08D" opacity="0.9"/>
  <circle cx="142.4" cy="144.5" r="2.5" fill="#4FC08D" opacity="0.5"/>
  <circle cx="179.2" cy="190.5" r="3.5" fill="#ED8B00" opacity="0.9"/>
  <circle cx="179.2" cy="119.5" r="2.5" fill="#ED8B00" opacity="0.5"/>
  <circle cx="216.0" cy="192.7" r="3.5" fill="#0175C2" opacity="0.9"/>
  <circle cx="216.0" cy="117.3" r="2.5" fill="#0175C2" opacity="0.5"/>
  <circle cx="252.8" cy="170.8" r="3.5" fill="#777BB4" opacity="0.9"/>
  <circle cx="252.8" cy="139.2" r="2.5" fill="#777BB4" opacity="0.5"/>
  <circle cx="289.6" cy="138.8" r="2.5" fill="#C6538C" opacity="0.5"/>
  <circle cx="289.6" cy="171.2" r="3.5" fill="#C6538C" opacity="0.9"/>
  <circle cx="326.4" cy="117.2" r="2.5" fill="#1572B6" opacity="0.5"/>
  <circle cx="326.4" cy="192.8" r="3.5" fill="#1572B6" opacity="0.9"/>
  <circle cx="363.2" cy="119.8" r="2.5" fill="#F7DF1E" opacity="0.5"/>
  <circle cx="363.2" cy="190.2" r="3.5" fill="#F7DF1E" opacity="0.9"/>
  <circle cx="400.0" cy="144.9" r="2.5" fill="#E34F26" opacity="0.5"/>
  <circle cx="400.0" cy="165.1" r="3.5" fill="#E34F26" opacity="0.9"/>
  <circle cx="436.8" cy="176.6" r="3.5" fill="#4FC08D" opacity="0.9"/>
  <circle cx="436.8" cy="133.4" r="2.5" fill="#4FC08D" opacity="0.5"/>
  <circle cx="473.6" cy="194.4" r="3.5" fill="#ED8B00" opacity="0.9"/>
  <circle cx="473.6" cy="115.6" r="2.5" fill="#ED8B00" opacity="0.5"/>
  <circle cx="510.4" cy="187.0" r="3.5" fill="#0175C2" opacity="0.9"/>
  <circle cx="510.4" cy="123.0" r="2.5" fill="#0175C2" opacity="0.5"/>
  <circle cx="547.2" cy="159.1" r="3.5" fill="#777BB4" opacity="0.9"/>
  <circle cx="547.2" cy="150.9" r="2.5" fill="#777BB4" opacity="0.5"/>
  <circle cx="584.0" cy="128.6" r="2.5" fill="#C6538C" opacity="0.5"/>
  <circle cx="584.0" cy="181.4" r="3.5" fill="#C6538C" opacity="0.9"/>
  <circle cx="620.8" cy="115.0" r="2.5" fill="#1572B6" opacity="0.5"/>
  <circle cx="620.8" cy="195.0" r="3.5" fill="#1572B6" opacity="0.9"/>
  <circle cx="657.6" cy="127.0" r="2.5" fill="#F7DF1E" opacity="0.5"/>
  <circle cx="657.6" cy="183.0" r="3.5" fill="#F7DF1E" opacity="0.9"/>
  <circle cx="694.4" cy="156.9" r="3.5" fill="#E34F26" opacity="0.9"/>
  <circle cx="694.4" cy="153.1" r="2.5" fill="#E34F26" opacity="0.5"/>
  <circle cx="731.2" cy="185.6" r="3.5" fill="#4FC08D" opacity="0.9"/>
  <circle cx="731.2" cy="124.4" r="2.5" fill="#4FC08D" opacity="0.5"/>
  <circle cx="768.0" cy="194.7" r="3.5" fill="#ED8B00" opacity="0.9"/>
  <circle cx="768.0" cy="115.3" r="2.5" fill="#ED8B00" opacity="0.5"/>
  <circle cx="32" cy="235" r="4" fill="#1572B6"/>
  <text x="42" y="239" class="small" fill="#86868B">CSS</text>
  <text x="60.6" y="239" class="small" fill="#AEAEB2"> 26.2%</text>
  <circle cx="157" cy="235" r="4" fill="#F7DF1E"/>
  <text x="167" y="239" class="small" fill="#86868B">JavaScript</text>
  <text x="229.0" y="239" class="small" fill="#AEAEB2"> 20.9%</text>
  <circle cx="282" cy="235" r="4" fill="#E34F26"/>
  <text x="292" y="239" class="small" fill="#86868B">HTML</text>
  <text x="316.8" y="239" class="small" fill="#AEAEB2"> 18.2%</text>
  <circle cx="407" cy="235" r="4" fill="#4FC08D"/>
  <text x="417" y="239" class="small" fill="#86868B">Vue</text>
  <text x="435.6" y="239" class="small" fill="#AEAEB2"> 13.6%</text>
  <circle cx="532" cy="235" r="4" fill="#ED8B00"/>
  <text x="542" y="239" class="small" fill="#86868B">Java</text>
  <text x="566.8" y="239" class="small" fill="#AEAEB2"> 8.9%</text>
  <circle cx="657" cy="235" r="4" fill="#0175C2"/>
  <text x="667" y="239" class="small" fill="#86868B">Dart</text>
  <text x="691.8" y="239" class="small" fill="#AEAEB2"> 6.5%</text>
  <text x="768" y="253" class="small" text-anchor="end" fill="#AEAEB2">DNA #A637D9B5</text>
</svg>
