<svg xmlns="http://www.w3.org/2000/svg" width="800" height="280" viewBox="0 0 800 280" fill="none">
  <title>@IAmMasterCraft's Code DNA</title>
  <defs>
    <style>
      @import url('https://fonts.googleapis.com/css2?family=SF+Pro+Display:wght@300;400;500;600;700&amp;display=swap');
      * { font-family: -apple-system, BlinkMacSystemFont, 'SF Pro Display', 'SF Pro Text', 'Helvetica Neue', Helvetica, Arial, sans-serif; }
      .title { font-size: 18px; font-weight: 600; fill: #1D1D1F; letter-spacing: -0.3px; }
      .subtitle { font-size: 13px; font-weight: 400; fill: #86868B; letter-spacing: -0.1px; }
      .label { font-size: 11px; font-weight: 500; fill: #86868B; letter-spacing: 0.3px; text-transform: uppercase; }
      .value { font-size: 14px; font-weight: 600; fill: #1D1D1F; }
      .small { font-size: 11px; font-weight: 400; fill: #AEAEB2; }
    </style>
    <filter id="shadow" x="-4%" y="-4%" width="108%" height="108%">
      <feDropShadow dx="0" dy="1" stdDeviation="3" flood-color="#000000" flood-opacity="0.04"/>
      <feDropShadow dx="0" dy="2" stdDeviation="8" flood-color="#000000" flood-opacity="0.03"/>
    </filter>
    <filter id="softShadow" x="-2%" y="-2%" width="104%" height="104%">
      <feDropShadow dx="0" dy="1" stdDeviation="2" flood-color="#000000" flood-opacity="0.06"/>
    </filter>
    <linearGradient id="cardBg" x1="0" y1="0" x2="0" y2="1">
      <stop offset="0%" stop-color="#FFFFFF"/>
      <stop offset="100%" stop-color="#FAFAFA"/>
    </linearGradient>
  </defs>
  <rect width="800" height="280" rx="16" fill="url(#cardBg)" stroke="#E8E8ED" stroke-width="1"/>
  <text x="32" y="38" class="title">Code DNA</text>
  <text x="32" y="58" class="subtitle">Your unique developer fingerprint</text>
  <line x1="32.0" y1="194.3" x2="32.0" y2="115.7" stroke="#1572B6" stroke-width="1.5" opacity="0.25"/>
  <line x1="68.8" y1="177.0" x2="68.8" y2="133.0" stroke="#4FC08D" stroke-width="1.5" opacity="0.21"/>
  <line x1="105.6" y1="146.3" x2="105.6" y2="163.7" stroke="#777BB4" stroke-width="1.5" opacity="0.17"/>
  <line x1="142.4" y1="120.9" x2="142.4" y2="189.1" stroke="#F7DF1E" stroke-width="1.5" opacity="0.24"/>
  <line x1="179.2" y1="116.3" x2="179.2" y2="193.7" stroke="#ED8B00" stroke-width="1.5" opacity="0.25"/>
  <line x1="216.0" y1="135.4" x2="216.0" y2="174.6" stroke="#C6538C" stroke-width="1.5" opacity="0.20"/>
  <line x1="252.8" y1="166.5" x2="252.8" y2="143.5" stroke="#E34F26" stroke-width="1.5" opacity="0.18"/>
  <line x1="289.6" y1="190.5" x2="289.6" y2="119.5" stroke="#0175C2" stroke-width="1.5" opacity="0.24"/>
  <line x1="326.4" y1="192.9" x2="326.4" y2="117.1" stroke="#1572B6" stroke-width="1.5" opacity="0.24"/>
  <line x1="363.2" y1="172.1" x2="363.2" y2="137.9" stroke="#4FC08D" stroke-width="1.5" opacity="0.19"/>
  <line x1="400.0" y1="140.8" x2="400.0" y2="169.2" stroke="#777BB4" stroke-width="1.5" opacity="0.19"/>
  <line x1="436.8" y1="118.2" x2="436.8" y2="191.8" stroke="#F7DF1E" stroke-width="1.5" opacity="0.24"/>
  <line x1="473.6" y1="118.1" x2="473.6" y2="191.9" stroke="#ED8B00" stroke-width="1.5" opacity="0.24"/>
  <line x1="510.4" y1="140.5" x2="510.4" y2="169.5" stroke="#C6538C" stroke-width="1.5" opacity="0.19"/>
  <line x1="547.2" y1="171.8" x2="547.2" y2="138.2" stroke="#E34F26" stroke-width="1.5" opacity="0.19"/>
  <line x1="584.0" y1="192.8" x2="584.0" y2="117.2" stroke="#0175C2" stroke-width="1.5" opacity="0.24"/>
  <line x1="620.8" y1="190.7" x2="620.8" y2="119.3" stroke="#1572B6" stroke-width="1.5" opacity="0.24"/>
  <line x1="657.6" y1="166.8" x2="657.6" y2="143.2" stroke="#4FC08D" stroke-width="1.5" opacity="0.18"/>
  <line x1="694.4" y1="135.7" x2="694.4" y2="174.3" stroke="#777BB4" stroke-width="1.5" opacity="0.20"/>
  <line x1="731.2" y1="116.4" x2="731.2" y2="193.6" stroke="#F7DF1E" stroke-width="1.5" opacity="0.25"/>
  <defs>
    <linearGradient id="strand1" x1="0" y1="0" x2="1" y2="0">
      <stop offset="0%" stop-color="#007AFF"/>
      <stop offset="50%" stop-color="#AF52DE"/>
      <stop offset="100%" stop-color="#5AC8FA"/>
    </linearGradient>
    <linearGradient id="strand2" x1="0" y1="0" x2="1" y2="0">
      <stop offset="0%" stop-color="#5856D6"/>
      <stop offset="50%" stop-color="#FF2D55"/>
      <stop offset="100%" stop-color="#FF9500"/>
    </linearGradient>
  </defs>
  <path d="M 32.0 194.3 L 44.3 191.0 L 56.5 185.1 L 68.8 177.0 L 81.1 167.4 L 93.3 156.9 L 105.6 146.3 L 117.9 136.3 L 130.1 127.6 L 142.4 120.9 L 154.7 116.6 L 166.9 115.0 L 179.2 116.3 L 191.5 120.3 L 203.7 126.9 L 216.0 135.4 L 228.3 145.3 L 240.5 155.9 L 252.8 166.5 L 265.1 176.2 L 277.3 184.4 L 289.6 190.5 L 301.9 194.1 L 314.1 194.9 L 326.4 192.9 L 338.7 188.1 L 350.9 181.0 L 363.2 172.1 L 375.5 161.9 L 387.7 151.2 L 400.0 140.8 L 412.3 131.4 L 424.5 123.7 L 436.8 118.2 L 449.1 115.4 L 461.3 115.3 L 473.6 118.1 L 485.9 123.5 L 498.1 131.2 L 510.4 140.5 L 522.7 150.9 L 534.9 161.6 L 547.2 171.8 L 559.5 180.8 L 571.7 188.0 L 584.0 192.8 L 596.3 194.9 L 608.5 194.2 L 620.8 190.7 L 633.1 184.6 L 645.3 176.5 L 657.6 166.8 L 669.9 156.2 L 682.1 145.6 L 694.4 135.7 L 706.7 127.1 L 718.9 120.5 L 731.2 116.4 L 743.5 115.0 L 755.7 116.5 L 768.0 120.7" stroke="url(#strand1)" stroke-width="2.5" fill="none" stroke-linecap="round" opacity="0.8"/>
  <path d="M 32.0 115.7 L 44.3 119.0 L 56.5 124.9 L 68.8 133.0 L 81.1 142.6 L 93.3 153.1 L 105.6 163.7 L 117.9 173.7 L 130.1 182.4 L 142.4 189.1 L 154.7 193.4 L 166.9 195.0 L 179.2 193.7 L 191.5 189.7 L 203.7 183.1 L 216.0 174.6 L 228.3 164.7 L 240.5 154.1 L 252.8 143.5 L 265.1 133.8 L 277.3 125.6 L 289.6 119.5 L 301.9 115.9 L 314.1 115.1 L 326.4 117.1 L 338.7 121.9 L 350.9 129.0 L 363.2 137.9 L 375.5 148.1 L 387.7 158.8 L 400.0 169.2 L 412.3 178.6 L 424.5 186.3 L 436.8 191.8 L 449.1 194.6 L 461.3 194.7 L 473.6 191.9 L 485.9 186.5 L 498.1 178.8 L 510.4 169.5 L 522.7 159.1 L 534.9 148.4 L 547.2 138.2 L 559.5 129.2 L 571.7 122.0 L 584.0 117.2 L 596.3 115.1 L 608.5 115.8 L 620.8 119.3 L 633.1 125.4 L 645.3 133.5 L 657.6 143.2 L 669.9 153.8 L 682.1 164.4 L 694.4 174.3 L 706.7 182.9 L 718.9 189.5 L 731.2 193.6 L 743.5 195.0 L 755.7 193.5 L 768.0 189.3" stroke="url(#strand2)" stroke-width="2.5" fill="none" stroke-linecap="round" opacity="0.8"/>
  <circle cx="32.0" cy="194.3" r="3.5" fill="#1572B6" opacity="0.9"/>
  <circle cx="32.0" cy="115.7" r="2.5" fill="#1572B6" opacity="0.5"/>
  <circle cx="68.8" cy="177.0" r="3.5" fill="#F7DF1E" opacity="0.9"/>
  <circle cx="68.8" cy="133.0" r="2.5" fill="#F7DF1E" opacity="0.5"/>
  <circle cx="105.6" cy="146.3" r="2.5" fill="#E34F26" opacity="0.5"/>
  <circle cx="105.6" cy="163.7" r="3.5" fill="#E34F26" opacity="0.9"/>
  <circle cx="142.4" cy="120.9" r="2.5" fill="#4FC08D" opacity="0.5"/>
  <circle cx="142.4" cy="189.1" r="3.5" fill="#4FC08D" opacity="0.9"/>
  <circle cx="179.2" cy="116.3" r="2.5" fill="#ED8B00" opacity="0.5"/>
  <circle cx="179.2" cy="193.7" r="3.5" fill="#ED8B00" opacity="0.9"/>
  <circle cx="216.0" cy="135.4" r="2.5" fill="#0175C2" opacity="0.5"/>
  <circle cx="216.0" cy="174.6" r="3.5" fill="#0175C2" opacity="0.9"/>
  <circle cx="252.8" cy="166.5" r="3.5" fill="#777BB4" opacity="0.9"/>
  <circle cx="252.8" cy="143.5" r="2.5" fill="#777BB4" opacity="0.5"/>
  <circle cx="289.6" cy="190.5" r="3.5" fill="#C6538C" opacity="0.9"/>
  <circle cx="289.6" cy="119.5" r="2.5" fill="#C6538C" opacity="0.5"/>
  <circle cx="326.4" cy="192.9" r="3.5" fill="#1572B6" opacity="0.9"/>
  <circle cx="326.4" cy="117.1" r="2.5" fill="#1572B6" opacity="0.5"/>
  <circle cx="363.2" cy="172.1" r="3.5" fill="#F7DF1E" opacity="0.9"/>
  <circle cx="363.2" cy="137.9" r="2.5" fill="#F7DF1E" opacity="0.5"/>
  <circle cx="400.0" cy="140.8" r="2.5" fill="#E34F26" opacity="0.5"/>
  <circle cx="400.0" cy="169.2" r="3.5" fill="#E34F26" opacity="0.9"/>
  <circle cx="436.8" cy="118.2" r="2.5" fill="#4FC08D" opacity="0.5"/>
  <circle cx="436.8" cy="191.8" r="3.5" fill="#4FC08D" opacity="0.9"/>
  <circle cx="473.6" cy="118.1" r="2.5" fill="#ED8B00" opacity="0.5"/>
  <circle cx="473.6" cy="191.9" r="3.5" fill="#ED8B00" opacity="0.9"/>
  <circle cx="510.4" cy="140.5" r="2.5" fill="#0175C2" opacity="0.5"/>
  <circle cx="510.4" cy="169.5" r="3.5" fill="#0175C2" opacity="0.9"/>
  <circle cx="547.2" cy="171.8" r="3.5" fill="#777BB4" opacity="0.9"/>
  <circle cx="547.2" cy="138.2" r="2.5" fill="#777BB4" opacity="0.5"/>
  <circle cx="584.0" cy="192.8" r="3.5" fill="#C6538C" opacity="0.9"/>
  <circle cx="584.0" cy="117.2" r="2.5" fill="#C6538C" opacity="0.5"/>
  <circle cx="620.8" cy="190.7" r="3.5" fill="#1572B6" opacity="0.9"/>
  <circle cx="620.8" cy="119.3" r="2.5" fill="#1572B6" opacity="0.5"/>
  <circle cx="657.6" cy="166.8" r="3.5" fill="#F7DF1E" opacity="0.9"/>
  <circle cx="657.6" cy="143.2" r="2.5" fill="#F7DF1E" opacity="0.5"/>
  <circle cx="694.4" cy="135.7" r="2.5" fill="#E34F26" opacity="0.5"/>
  <circle cx="694.4" cy="174.3" r="3.5" fill="#E34F26" opacity="0.9"/>
  <circle cx="731.2" cy="116.4" r="2.5" fill="#4FC08D" opacity="0.5"/>
  <circle cx="731.2" cy="193.6" r="3.5" fill="#4FC08D" opacity="0.9"/>
  <circle cx="768.0" cy="120.7" r="2.5" fill="#ED8B00" opacity="0.5"/>
  <circle cx="768.0" cy="189.3" r="3.5" fill="#ED8B00" opacity="0.9"/>
  <circle cx="32" cy="235" r="4" fill="#1572B6"/>
  <text x="42" y="239" class="small" fill="#86868B">CSS</text>
  <text x="60.6" y="239" class="small" fill="#AEAEB2"> 26.3%</text>
  <circle cx="157" cy="235" r="4" fill="#F7DF1E"/>
  <text x="167" y="239" class="small" fill="#86868B">JavaScript</text>
  <text x="229.0" y="239" class="small" fill="#AEAEB2"> 20.1%</text>
  <circle cx="282" cy="235" r="4" fill="#E34F26"/>
  <text x="292" y="239" class="small" fill="#86868B">HTML</text>
  <text x="316.8" y="239" class="small" fill="#AEAEB2"> 18.2%</text>
  <circle cx="407" cy="235" r="4" fill="#4FC08D"/>
  <text x="417" y="239" class="small" fill="#86868B">Vue</text>
  <text x="435.6" y="239" class="small" fill="#AEAEB2"> 13.8%</text>
  <circle cx="532" cy="235" r="4" fill="#ED8B00"/>
  <text x="542" y="239" class="small" fill="#86868B">Java</text>
  <text x="566.8" y="239" class="small" fill="#AEAEB2"> 9.1%</text>
  <circle cx="657" cy="235" r="4" fill="#0175C2"/>
  <text x="667" y="239" class="small" fill="#86868B">Dart</text>
  <text x="691.8" y="239" class="small" fill="#AEAEB2"> 6.6%</text>
  <text x="768" y="253" class="small" text-anchor="end" fill="#AEAEB2">DNA #4780CC16</text>
</svg>
