<svg xmlns="http://www.w3.org/2000/svg" width="800" height="280" viewBox="0 0 800 280" fill="none">
  <title>@IAmMasterCraft's Code DNA</title>
  <defs>
    <style>
      @import url('https://fonts.googleapis.com/css2?family=SF+Pro+Display:wght@300;400;500;600;700&amp;display=swap');
      * { font-family: -apple-system, BlinkMacSystemFont, 'SF Pro Display', 'SF Pro Text', 'Helvetica Neue', Helvetica, Arial, sans-serif; }
      .title { font-size: 18px; font-weight: 600; fill: #1D1D1F; letter-spacing: -0.3px; }
      .subtitle { font-size: 13px; font-weight: 400; fill: #86868B; letter-spacing: -0.1px; }
      .label { font-size: 11px; font-weight: 500; fill: #86868B; letter-spacing: 0.3px; text-transform: uppercase; }
      .value { font-size: 14px; font-weight: 600; fill: #1D1D1F; }
      .small { font-size: 11px; font-weight: 400; fill: #AEAEB2; }
    </style>
    <filter id="shadow" x="-4%" y="-4%" width="108%" height="108%">
      <feDropShadow dx="0" dy="1" stdDeviation="3" flood-color="#000000" flood-opacity="0.04"/>
      <feDropShadow dx="0" dy="2" stdDeviation="8" flood-color="#000000" flood-opacity="0.03"/>
    </filter>
    <filter id="softShadow" x="-2%" y="-2%" width="104%" height="104%">
      <feDropShadow dx="0" dy="1" stdDeviation="2" flood-color="#000000" flood-opacity="0.06"/>
    </filter>
    <linearGradient id="cardBg" x1="0" y1="0" x2="0" y2="1">
      <stop offset="0%" stop-color="#FFFFFF"/>
      <stop offset="100%" stop-color="#FAFAFA"/>
    </linearGradient>
  </defs>
  <rect width="800" height="280" rx="16" fill="url(#cardBg)" stroke="#E8E8ED" stroke-width="1"/>
  <text x="32" y="38" class="title">Code DNA</text>
  <text x="32" y="58" class="subtitle">Your unique developer fingerprint</text>
  <line x1="32.0" y1="194.9" x2="32.0" y2="115.1" stroke="#1572B6" stroke-width="1.5" opacity="0.25"/>
  <line x1="68.8" y1="184.7" x2="68.8" y2="125.3" stroke="#4FC08D" stroke-width="1.5" opacity="0.22"/>
  <line x1="105.6" y1="161.8" x2="105.6" y2="148.2" stroke="#777BB4" stroke-width="1.5" opacity="0.17"/>
  <line x1="142.4" y1="135.9" x2="142.4" y2="174.1" stroke="#F7DF1E" stroke-width="1.5" opacity="0.20"/>
  <line x1="179.2" y1="118.2" x2="179.2" y2="191.8" stroke="#ED8B00" stroke-width="1.5" opacity="0.24"/>
  <line x1="216.0" y1="116.4" x2="216.0" y2="193.6" stroke="#C6538C" stroke-width="1.5" opacity="0.25"/>
  <line x1="252.8" y1="131.1" x2="252.8" y2="178.9" stroke="#E34F26" stroke-width="1.5" opacity="0.21"/>
  <line x1="289.6" y1="156.2" x2="289.6" y2="153.8" stroke="#0175C2" stroke-width="1.5" opacity="0.15"/>
  <line x1="326.4" y1="180.7" x2="326.4" y2="129.3" stroke="#1572B6" stroke-width="1.5" opacity="0.21"/>
  <line x1="363.2" y1="194.2" x2="363.2" y2="115.8" stroke="#4FC08D" stroke-width="1.5" opacity="0.25"/>
  <line x1="400.0" y1="190.8" x2="400.0" y2="119.2" stroke="#777BB4" stroke-width="1.5" opacity="0.24"/>
  <line x1="436.8" y1="172.0" x2="436.8" y2="138.0" stroke="#F7DF1E" stroke-width="1.5" opacity="0.19"/>
  <line x1="473.6" y1="145.9" x2="473.6" y2="164.1" stroke="#ED8B00" stroke-width="1.5" opacity="0.17"/>
  <line x1="510.4" y1="123.7" x2="510.4" y2="186.3" stroke="#C6538C" stroke-width="1.5" opacity="0.23"/>
  <line x1="547.2" y1="115.0" x2="547.2" y2="195.0" stroke="#E34F26" stroke-width="1.5" opacity="0.25"/>
  <line x1="584.0" y1="123.5" x2="584.0" y2="186.5" stroke="#0175C2" stroke-width="1.5" opacity="0.23"/>
  <line x1="620.8" y1="145.5" x2="620.8" y2="164.5" stroke="#1572B6" stroke-width="1.5" opacity="0.17"/>
  <line x1="657.6" y1="171.6" x2="657.6" y2="138.4" stroke="#4FC08D" stroke-width="1.5" opacity="0.19"/>
  <line x1="694.4" y1="190.6" x2="694.4" y2="119.4" stroke="#777BB4" stroke-width="1.5" opacity="0.24"/>
  <line x1="731.2" y1="194.3" x2="731.2" y2="115.7" stroke="#F7DF1E" stroke-width="1.5" opacity="0.25"/>
  <defs>
    <linearGradient id="strand1" x1="0" y1="0" x2="1" y2="0">
      <stop offset="0%" stop-color="#007AFF"/>
      <stop offset="50%" stop-color="#AF52DE"/>
      <stop offset="100%" stop-color="#5AC8FA"/>
    </linearGradient>
    <linearGradient id="strand2" x1="0" y1="0" x2="1" y2="0">
      <stop offset="0%" stop-color="#5856D6"/>
      <stop offset="50%" stop-color="#FF2D55"/>
      <stop offset="100%" stop-color="#FF9500"/>
    </linearGradient>
  </defs>
  <path d="M 32.0 194.9 L 44.3 193.4 L 56.5 189.9 L 68.8 184.7 L 81.1 178.1 L 93.3 170.3 L 105.6 161.8 L 117.9 152.9 L 130.1 144.1 L 142.4 135.9 L 154.7 128.6 L 166.9 122.6 L 179.2 118.2 L 191.5 115.7 L 203.7 115.0 L 216.0 116.4 L 228.3 119.6 L 240.5 124.6 L 252.8 131.1 L 265.1 138.8 L 277.3 147.3 L 289.6 156.2 L 301.9 165.0 L 314.1 173.3 L 326.4 180.7 L 338.7 186.8 L 350.9 191.4 L 363.2 194.2 L 375.5 195.0 L 387.7 193.9 L 400.0 190.8 L 412.3 186.0 L 424.5 179.6 L 436.8 172.0 L 449.1 163.6 L 461.3 154.8 L 473.6 145.9 L 485.9 137.6 L 498.1 130.0 L 510.4 123.7 L 522.7 119.0 L 534.9 116.0 L 547.2 115.0 L 559.5 115.9 L 571.7 118.8 L 584.0 123.5 L 596.3 129.7 L 608.5 137.1 L 620.8 145.5 L 633.1 154.3 L 645.3 163.1 L 657.6 171.6 L 669.9 179.2 L 682.1 185.7 L 694.4 190.6 L 706.7 193.7 L 718.9 195.0 L 731.2 194.3 L 743.5 191.6 L 755.7 187.1 L 768.0 181.0" stroke="url(#strand1)" stroke-width="2.5" fill="none" stroke-linecap="round" opacity="0.8"/>
  <path d="M 32.0 115.1 L 44.3 116.6 L 56.5 120.1 L 68.8 125.3 L 81.1 131.9 L 93.3 139.7 L 105.6 148.2 L 117.9 157.1 L 130.1 165.9 L 142.4 174.1 L 154.7 181.4 L 166.9 187.4 L 179.2 191.8 L 191.5 194.3 L 203.7 195.0 L 216.0 193.6 L 228.3 190.4 L 240.5 185.4 L 252.8 178.9 L 265.1 171.2 L 277.3 162.7 L 289.6 153.8 L 301.9 145.0 L 314.1 136.7 L 326.4 129.3 L 338.7 123.2 L 350.9 118.6 L 363.2 115.8 L 375.5 115.0 L 387.7 116.1 L 400.0 119.2 L 412.3 124.0 L 424.5 130.4 L 436.8 138.0 L 449.1 146.4 L 461.3 155.2 L 473.6 164.1 L 485.9 172.4 L 498.1 180.0 L 510.4 186.3 L 522.7 191.0 L 534.9 194.0 L 547.2 195.0 L 559.5 194.1 L 571.7 191.2 L 584.0 186.5 L 596.3 180.3 L 608.5 172.9 L 620.8 164.5 L 633.1 155.7 L 645.3 146.9 L 657.6 138.4 L 669.9 130.8 L 682.1 124.3 L 694.4 119.4 L 706.7 116.3 L 718.9 115.0 L 731.2 115.7 L 743.5 118.4 L 755.7 122.9 L 768.0 129.0" stroke="url(#strand2)" stroke-width="2.5" fill="none" stroke-linecap="round" opacity="0.8"/>
  <circle cx="32.0" cy="194.9" r="3.5" fill="#1572B6" opacity="0.9"/>
  <circle cx="32.0" cy="115.1" r="2.5" fill="#1572B6" opacity="0.5"/>
  <circle cx="68.8" cy="184.7" r="3.5" fill="#F7DF1E" opacity="0.9"/>
  <circle cx="68.8" cy="125.3" r="2.5" fill="#F7DF1E" opacity="0.5"/>
  <circle cx="105.6" cy="161.8" r="3.5" fill="#E34F26" opacity="0.9"/>
  <circle cx="105.6" cy="148.2" r="2.5" fill="#E34F26" opacity="0.5"/>
  <circle cx="142.4" cy="135.9" r="2.5" fill="#4FC08D" opacity="0.5"/>
  <circle cx="142.4" cy="174.1" r="3.5" fill="#4FC08D" opacity="0.9"/>
  <circle cx="179.2" cy="118.2" r="2.5" fill="#ED8B00" opacity="0.5"/>
  <circle cx="179.2" cy="191.8" r="3.5" fill="#ED8B00" opacity="0.9"/>
  <circle cx="216.0" cy="116.4" r="2.5" fill="#0175C2" opacity="0.5"/>
  <circle cx="216.0" cy="193.6" r="3.5" fill="#0175C2" opacity="0.9"/>
  <circle cx="252.8" cy="131.1" r="2.5" fill="#777BB4" opacity="0.5"/>
  <circle cx="252.8" cy="178.9" r="3.5" fill="#777BB4" opacity="0.9"/>
  <circle cx="289.6" cy="156.2" r="3.5" fill="#C6538C" opacity="0.9"/>
  <circle cx="289.6" cy="153.8" r="2.5" fill="#C6538C" opacity="0.5"/>
  <circle cx="326.4" cy="180.7" r="3.5" fill="#1572B6" opacity="0.9"/>
  <circle cx="326.4" cy="129.3" r="2.5" fill="#1572B6" opacity="0.5"/>
  <circle cx="363.2" cy="194.2" r="3.5" fill="#F7DF1E" opacity="0.9"/>
  <circle cx="363.2" cy="115.8" r="2.5" fill="#F7DF1E" opacity="0.5"/>
  <circle cx="400.0" cy="190.8" r="3.5" fill="#E34F26" opacity="0.9"/>
  <circle cx="400.0" cy="119.2" r="2.5" fill="#E34F26" opacity="0.5"/>
  <circle cx="436.8" cy="172.0" r="3.5" fill="#4FC08D" opacity="0.9"/>
  <circle cx="436.8" cy="138.0" r="2.5" fill="#4FC08D" opacity="0.5"/>
  <circle cx="473.6" cy="145.9" r="2.5" fill="#ED8B00" opacity="0.5"/>
  <circle cx="473.6" cy="164.1" r="3.5" fill="#ED8B00" opacity="0.9"/>
  <circle cx="510.4" cy="123.7" r="2.5" fill="#0175C2" opacity="0.5"/>
  <circle cx="510.4" cy="186.3" r="3.5" fill="#0175C2" opacity="0.9"/>
  <circle cx="547.2" cy="115.0" r="2.5" fill="#777BB4" opacity="0.5"/>
  <circle cx="547.2" cy="195.0" r="3.5" fill="#777BB4" opacity="0.9"/>
  <circle cx="584.0" cy="123.5" r="2.5" fill="#C6538C" opacity="0.5"/>
  <circle cx="584.0" cy="186.5" r="3.5" fill="#C6538C" opacity="0.9"/>
  <circle cx="620.8" cy="145.5" r="2.5" fill="#1572B6" opacity="0.5"/>
  <circle cx="620.8" cy="164.5" r="3.5" fill="#1572B6" opacity="0.9"/>
  <circle cx="657.6" cy="171.6" r="3.5" fill="#F7DF1E" opacity="0.9"/>
  <circle cx="657.6" cy="138.4" r="2.5" fill="#F7DF1E" opacity="0.5"/>
  <circle cx="694.4" cy="190.6" r="3.5" fill="#E34F26" opacity="0.9"/>
  <circle cx="694.4" cy="119.4" r="2.5" fill="#E34F26" opacity="0.5"/>
  <circle cx="731.2" cy="194.3" r="3.5" fill="#4FC08D" opacity="0.9"/>
  <circle cx="731.2" cy="115.7" r="2.5" fill="#4FC08D" opacity="0.5"/>
  <circle cx="768.0" cy="181.0" r="3.5" fill="#ED8B00" opacity="0.9"/>
  <circle cx="768.0" cy="129.0" r="2.5" fill="#ED8B00" opacity="0.5"/>
  <circle cx="32" cy="235" r="4" fill="#1572B6"/>
  <text x="42" y="239" class="small" fill="#86868B">CSS</text>
  <text x="60.6" y="239" class="small" fill="#AEAEB2"> 26.1%</text>
  <circle cx="157" cy="235" r="4" fill="#F7DF1E"/>
  <text x="167" y="239" class="small" fill="#86868B">JavaScript</text>
  <text x="229.0" y="239" class="small" fill="#AEAEB2"> 20.9%</text>
  <circle cx="282" cy="235" r="4" fill="#E34F26"/>
  <text x="292" y="239" class="small" fill="#86868B">HTML</text>
  <text x="316.8" y="239" class="small" fill="#AEAEB2"> 18.2%</text>
  <circle cx="407" cy="235" r="4" fill="#4FC08D"/>
  <text x="417" y="239" class="small" fill="#86868B">Vue</text>
  <text x="435.6" y="239" class="small" fill="#AEAEB2"> 13.6%</text>
  <circle cx="532" cy="235" r="4" fill="#ED8B00"/>
  <text x="542" y="239" class="small" fill="#86868B">Java</text>
  <text x="566.8" y="239" class="small" fill="#AEAEB2"> 8.9%</text>
  <circle cx="657" cy="235" r="4" fill="#0175C2"/>
  <text x="667" y="239" class="small" fill="#86868B">Dart</text>
  <text x="691.8" y="239" class="small" fill="#AEAEB2"> 6.5%</text>
  <text x="768" y="253" class="small" text-anchor="end" fill="#AEAEB2">DNA #429F7067</text>
</svg>
