<svg xmlns="http://www.w3.org/2000/svg" width="800" height="280" viewBox="0 0 800 280" fill="none">
  <title>@IAmMasterCraft's Code DNA</title>
  <defs>
    <style>
      @import url('https://fonts.googleapis.com/css2?family=SF+Pro+Display:wght@300;400;500;600;700&amp;display=swap');
      * { font-family: -apple-system, BlinkMacSystemFont, 'SF Pro Display', 'SF Pro Text', 'Helvetica Neue', Helvetica, Arial, sans-serif; }
      .title { font-size: 18px; font-weight: 600; fill: #1D1D1F; letter-spacing: -0.3px; }
      .subtitle { font-size: 13px; font-weight: 400; fill: #86868B; letter-spacing: -0.1px; }
      .label { font-size: 11px; font-weight: 500; fill: #86868B; letter-spacing: 0.3px; text-transform: uppercase; }
      .value { font-size: 14px; font-weight: 600; fill: #1D1D1F; }
      .small { font-size: 11px; font-weight: 400; fill: #AEAEB2; }
    </style>
    <filter id="shadow" x="-4%" y="-4%" width="108%" height="108%">
      <feDropShadow dx="0" dy="1" stdDeviation="3" flood-color="#000000" flood-opacity="0.04"/>
      <feDropShadow dx="0" dy="2" stdDeviation="8" flood-color="#000000" flood-opacity="0.03"/>
    </filter>
    <filter id="softShadow" x="-2%" y="-2%" width="104%" height="104%">
      <feDropShadow dx="0" dy="1" stdDeviation="2" flood-color="#000000" flood-opacity="0.06"/>
    </filter>
    <linearGradient id="cardBg" x1="0" y1="0" x2="0" y2="1">
      <stop offset="0%" stop-color="#FFFFFF"/>
      <stop offset="100%" stop-color="#FAFAFA"/>
    </linearGradient>
  </defs>
  <rect width="800" height="280" rx="16" fill="url(#cardBg)" stroke="#E8E8ED" stroke-width="1"/>
  <text x="32" y="38" class="title">Code DNA</text>
  <text x="32" y="58" class="subtitle">Your unique developer fingerprint</text>
  <line x1="32.0" y1="176.7" x2="32.0" y2="133.3" stroke="#1572B6" stroke-width="1.5" opacity="0.20"/>
  <line x1="68.8" y1="148.0" x2="68.8" y2="162.0" stroke="#4FC08D" stroke-width="1.5" opacity="0.17"/>
  <line x1="105.6" y1="123.1" x2="105.6" y2="186.9" stroke="#777BB4" stroke-width="1.5" opacity="0.23"/>
  <line x1="142.4" y1="115.2" x2="142.4" y2="194.8" stroke="#F7DF1E" stroke-width="1.5" opacity="0.25"/>
  <line x1="179.2" y1="128.6" x2="179.2" y2="181.4" stroke="#ED8B00" stroke-width="1.5" opacity="0.22"/>
  <line x1="216.0" y1="156.1" x2="216.0" y2="153.9" stroke="#C6538C" stroke-width="1.5" opacity="0.15"/>
  <line x1="252.8" y1="183.0" x2="252.8" y2="127.0" stroke="#E34F26" stroke-width="1.5" opacity="0.22"/>
  <line x1="289.6" y1="195.0" x2="289.6" y2="115.0" stroke="#0175C2" stroke-width="1.5" opacity="0.25"/>
  <line x1="326.4" y1="185.5" x2="326.4" y2="124.5" stroke="#1572B6" stroke-width="1.5" opacity="0.23"/>
  <line x1="363.2" y1="159.7" x2="363.2" y2="150.3" stroke="#4FC08D" stroke-width="1.5" opacity="0.16"/>
  <line x1="400.0" y1="131.4" x2="400.0" y2="178.6" stroke="#777BB4" stroke-width="1.5" opacity="0.21"/>
  <line x1="436.8" y1="115.7" x2="436.8" y2="194.3" stroke="#F7DF1E" stroke-width="1.5" opacity="0.25"/>
  <line x1="473.6" y1="121.0" x2="473.6" y2="189.0" stroke="#ED8B00" stroke-width="1.5" opacity="0.23"/>
  <line x1="510.4" y1="144.5" x2="510.4" y2="165.5" stroke="#C6538C" stroke-width="1.5" opacity="0.18"/>
  <line x1="547.2" y1="173.6" x2="547.2" y2="136.4" stroke="#E34F26" stroke-width="1.5" opacity="0.20"/>
  <line x1="584.0" y1="192.7" x2="584.0" y2="117.3" stroke="#0175C2" stroke-width="1.5" opacity="0.24"/>
  <line x1="620.8" y1="191.7" x2="620.8" y2="118.3" stroke="#1572B6" stroke-width="1.5" opacity="0.24"/>
  <line x1="657.6" y1="171.0" x2="657.6" y2="139.0" stroke="#4FC08D" stroke-width="1.5" opacity="0.19"/>
  <line x1="694.4" y1="141.8" x2="694.4" y2="168.2" stroke="#777BB4" stroke-width="1.5" opacity="0.18"/>
  <line x1="731.2" y1="119.6" x2="731.2" y2="190.4" stroke="#F7DF1E" stroke-width="1.5" opacity="0.24"/>
  <defs>
    <linearGradient id="strand1" x1="0" y1="0" x2="1" y2="0">
      <stop offset="0%" stop-color="#007AFF"/>
      <stop offset="50%" stop-color="#AF52DE"/>
      <stop offset="100%" stop-color="#5AC8FA"/>
    </linearGradient>
    <linearGradient id="strand2" x1="0" y1="0" x2="1" y2="0">
      <stop offset="0%" stop-color="#5856D6"/>
      <stop offset="50%" stop-color="#FF2D55"/>
      <stop offset="100%" stop-color="#FF9500"/>
    </linearGradient>
  </defs>
  <path d="M 32.0 176.7 L 44.3 167.7 L 56.5 158.0 L 68.8 148.0 L 81.1 138.5 L 93.3 130.0 L 105.6 123.1 L 117.9 118.1 L 130.1 115.4 L 142.4 115.2 L 154.7 117.4 L 166.9 122.0 L 179.2 128.6 L 191.5 136.9 L 203.7 146.2 L 216.0 156.1 L 228.3 166.0 L 240.5 175.1 L 252.8 183.0 L 265.1 189.2 L 277.3 193.3 L 289.6 195.0 L 301.9 194.2 L 314.1 190.9 L 326.4 185.5 L 338.7 178.2 L 350.9 169.4 L 363.2 159.7 L 375.5 149.8 L 387.7 140.1 L 400.0 131.4 L 412.3 124.2 L 424.5 118.8 L 436.8 115.7 L 449.1 115.1 L 461.3 116.9 L 473.6 121.0 L 485.9 127.3 L 498.1 135.3 L 510.4 144.5 L 522.7 154.4 L 534.9 164.3 L 547.2 173.6 L 559.5 181.7 L 571.7 188.3 L 584.0 192.7 L 596.3 194.8 L 608.5 194.5 L 620.8 191.7 L 633.1 186.6 L 645.3 179.6 L 657.6 171.0 L 669.9 161.5 L 682.1 151.5 L 694.4 141.8 L 706.7 132.9 L 718.9 125.3 L 731.2 119.6 L 743.5 116.1 L 755.7 115.0 L 768.0 116.4" stroke="url(#strand1)" stroke-width="2.5" fill="none" stroke-linecap="round" opacity="0.8"/>
  <path d="M 32.0 133.3 L 44.3 142.3 L 56.5 152.0 L 68.8 162.0 L 81.1 171.5 L 93.3 180.0 L 105.6 186.9 L 117.9 191.9 L 130.1 194.6 L 142.4 194.8 L 154.7 192.6 L 166.9 188.0 L 179.2 181.4 L 191.5 173.1 L 203.7 163.8 L 216.0 153.9 L 228.3 144.0 L 240.5 134.9 L 252.8 127.0 L 265.1 120.8 L 277.3 116.7 L 289.6 115.0 L 301.9 115.8 L 314.1 119.1 L 326.4 124.5 L 338.7 131.8 L 350.9 140.6 L 363.2 150.3 L 375.5 160.2 L 387.7 169.9 L 400.0 178.6 L 412.3 185.8 L 424.5 191.2 L 436.8 194.3 L 449.1 194.9 L 461.3 193.1 L 473.6 189.0 L 485.9 182.7 L 498.1 174.7 L 510.4 165.5 L 522.7 155.6 L 534.9 145.7 L 547.2 136.4 L 559.5 128.3 L 571.7 121.7 L 584.0 117.3 L 596.3 115.2 L 608.5 115.5 L 620.8 118.3 L 633.1 123.4 L 645.3 130.4 L 657.6 139.0 L 669.9 148.5 L 682.1 158.5 L 694.4 168.2 L 706.7 177.1 L 718.9 184.7 L 731.2 190.4 L 743.5 193.9 L 755.7 195.0 L 768.0 193.6" stroke="url(#strand2)" stroke-width="2.5" fill="none" stroke-linecap="round" opacity="0.8"/>
  <circle cx="32.0" cy="176.7" r="3.5" fill="#1572B6" opacity="0.9"/>
  <circle cx="32.0" cy="133.3" r="2.5" fill="#1572B6" opacity="0.5"/>
  <circle cx="68.8" cy="148.0" r="2.5" fill="#F7DF1E" opacity="0.5"/>
  <circle cx="68.8" cy="162.0" r="3.5" fill="#F7DF1E" opacity="0.9"/>
  <circle cx="105.6" cy="123.1" r="2.5" fill="#E34F26" opacity="0.5"/>
  <circle cx="105.6" cy="186.9" r="3.5" fill="#E34F26" opacity="0.9"/>
  <circle cx="142.4" cy="115.2" r="2.5" fill="#4FC08D" opacity="0.5"/>
  <circle cx="142.4" cy="194.8" r="3.5" fill="#4FC08D" opacity="0.9"/>
  <circle cx="179.2" cy="128.6" r="2.5" fill="#ED8B00" opacity="0.5"/>
  <circle cx="179.2" cy="181.4" r="3.5" fill="#ED8B00" opacity="0.9"/>
  <circle cx="216.0" cy="156.1" r="3.5" fill="#0175C2" opacity="0.9"/>
  <circle cx="216.0" cy="153.9" r="2.5" fill="#0175C2" opacity="0.5"/>
  <circle cx="252.8" cy="183.0" r="3.5" fill="#777BB4" opacity="0.9"/>
  <circle cx="252.8" cy="127.0" r="2.5" fill="#777BB4" opacity="0.5"/>
  <circle cx="289.6" cy="195.0" r="3.5" fill="#C6538C" opacity="0.9"/>
  <circle cx="289.6" cy="115.0" r="2.5" fill="#C6538C" opacity="0.5"/>
  <circle cx="326.4" cy="185.5" r="3.5" fill="#1572B6" opacity="0.9"/>
  <circle cx="326.4" cy="124.5" r="2.5" fill="#1572B6" opacity="0.5"/>
  <circle cx="363.2" cy="159.7" r="3.5" fill="#F7DF1E" opacity="0.9"/>
  <circle cx="363.2" cy="150.3" r="2.5" fill="#F7DF1E" opacity="0.5"/>
  <circle cx="400.0" cy="131.4" r="2.5" fill="#E34F26" opacity="0.5"/>
  <circle cx="400.0" cy="178.6" r="3.5" fill="#E34F26" opacity="0.9"/>
  <circle cx="436.8" cy="115.7" r="2.5" fill="#4FC08D" opacity="0.5"/>
  <circle cx="436.8" cy="194.3" r="3.5" fill="#4FC08D" opacity="0.9"/>
  <circle cx="473.6" cy="121.0" r="2.5" fill="#ED8B00" opacity="0.5"/>
  <circle cx="473.6" cy="189.0" r="3.5" fill="#ED8B00" opacity="0.9"/>
  <circle cx="510.4" cy="144.5" r="2.5" fill="#0175C2" opacity="0.5"/>
  <circle cx="510.4" cy="165.5" r="3.5" fill="#0175C2" opacity="0.9"/>
  <circle cx="547.2" cy="173.6" r="3.5" fill="#777BB4" opacity="0.9"/>
  <circle cx="547.2" cy="136.4" r="2.5" fill="#777BB4" opacity="0.5"/>
  <circle cx="584.0" cy="192.7" r="3.5" fill="#C6538C" opacity="0.9"/>
  <circle cx="584.0" cy="117.3" r="2.5" fill="#C6538C" opacity="0.5"/>
  <circle cx="620.8" cy="191.7" r="3.5" fill="#1572B6" opacity="0.9"/>
  <circle cx="620.8" cy="118.3" r="2.5" fill="#1572B6" opacity="0.5"/>
  <circle cx="657.6" cy="171.0" r="3.5" fill="#F7DF1E" opacity="0.9"/>
  <circle cx="657.6" cy="139.0" r="2.5" fill="#F7DF1E" opacity="0.5"/>
  <circle cx="694.4" cy="141.8" r="2.5" fill="#E34F26" opacity="0.5"/>
  <circle cx="694.4" cy="168.2" r="3.5" fill="#E34F26" opacity="0.9"/>
  <circle cx="731.2" cy="119.6" r="2.5" fill="#4FC08D" opacity="0.5"/>
  <circle cx="731.2" cy="190.4" r="3.5" fill="#4FC08D" opacity="0.9"/>
  <circle cx="768.0" cy="116.4" r="2.5" fill="#ED8B00" opacity="0.5"/>
  <circle cx="768.0" cy="193.6" r="3.5" fill="#ED8B00" opacity="0.9"/>
  <circle cx="32" cy="235" r="4" fill="#1572B6"/>
  <text x="42" y="239" class="small" fill="#86868B">CSS</text>
  <text x="60.6" y="239" class="small" fill="#AEAEB2"> 26.1%</text>
  <circle cx="157" cy="235" r="4" fill="#F7DF1E"/>
  <text x="167" y="239" class="small" fill="#86868B">JavaScript</text>
  <text x="229.0" y="239" class="small" fill="#AEAEB2"> 20.8%</text>
  <circle cx="282" cy="235" r="4" fill="#E34F26"/>
  <text x="292" y="239" class="small" fill="#86868B">HTML</text>
  <text x="316.8" y="239" class="small" fill="#AEAEB2"> 18.2%</text>
  <circle cx="407" cy="235" r="4" fill="#4FC08D"/>
  <text x="417" y="239" class="small" fill="#86868B">Vue</text>
  <text x="435.6" y="239" class="small" fill="#AEAEB2"> 13.6%</text>
  <circle cx="532" cy="235" r="4" fill="#ED8B00"/>
  <text x="542" y="239" class="small" fill="#86868B">Java</text>
  <text x="566.8" y="239" class="small" fill="#AEAEB2"> 8.9%</text>
  <circle cx="657" cy="235" r="4" fill="#0175C2"/>
  <text x="667" y="239" class="small" fill="#86868B">Dart</text>
  <text x="691.8" y="239" class="small" fill="#AEAEB2"> 6.5%</text>
  <text x="768" y="253" class="small" text-anchor="end" fill="#AEAEB2">DNA #68A5A709</text>
</svg>
